<svg width="354" height="299" viewBox="0 0 354 299" fill="none" xmlns="http://www.w3.org/2000/svg">
<g opacity="0.3" filter="url(#filter0_f_1301_10736)">
<rect x="58" y="58" width="242" height="183.7" rx="9.9" fill="url(#paint0_linear_1301_10736)"/>
<rect x="58" y="58" width="242" height="183.7" rx="9.9" fill="black" fill-opacity="0.2"/>
<rect x="58" y="58" width="242" height="183.7" rx="9.9" fill="black" fill-opacity="0.2"/>
</g>
<rect x="58.25" y="58.25" width="241.5" height="183.2" rx="9.65" fill="#232729"/>
<rect x="58.25" y="58.25" width="241.5" height="183.2" rx="9.65" stroke="url(#paint1_linear_1301_10736)" stroke-width="0.5"/>
<rect x="58.25" y="58.25" width="241.5" height="183.2" rx="9.65" stroke="black" stroke-opacity="0.2" stroke-width="0.5"/>
<rect x="58.25" y="58.25" width="241.5" height="183.2" rx="9.65" stroke="black" stroke-opacity="0.2" stroke-width="0.5"/>
<path d="M59 67.8C59 62.9399 62.9399 59 67.8 59H290.2C295.06 59 299 62.9399 299 67.8V85H59V67.8Z" fill="#191B1D"/>
<path d="M71.5842 71.5001C71.5842 70.7448 71.7529 70.0701 72.0902 69.4761C72.4349 68.8748 72.9006 68.4091 73.4872 68.0791C74.0812 67.7418 74.7449 67.5731 75.4782 67.5731C76.3362 67.5731 77.0879 67.7931 77.7332 68.2331C78.3786 68.6731 78.8296 69.2818 79.0862 70.0591H77.3152C77.1392 69.6924 76.8899 69.4174 76.5672 69.2341C76.2519 69.0508 75.8852 68.9591 75.4672 68.9591C75.0199 68.9591 74.6202 69.0654 74.2682 69.2781C73.9236 69.4834 73.6522 69.7768 73.4542 70.1581C73.2636 70.5394 73.1682 70.9868 73.1682 71.5001C73.1682 72.0061 73.2636 72.4534 73.4542 72.8421C73.6522 73.2234 73.9236 73.5204 74.2682 73.7331C74.6202 73.9384 75.0199 74.0411 75.4672 74.0411C75.8852 74.0411 76.2519 73.9494 76.5672 73.7661C76.8899 73.5754 77.1392 73.2968 77.3152 72.9301H79.0862C78.8296 73.7148 78.3786 74.3271 77.7332 74.7671C77.0952 75.1998 76.3436 75.4161 75.4782 75.4161C74.7449 75.4161 74.0812 75.2511 73.4872 74.9211C72.9006 74.5838 72.4349 74.1181 72.0902 73.5241C71.7529 72.9301 71.5842 72.2554 71.5842 71.5001ZM83.2726 75.4271C82.7372 75.4271 82.2532 75.3354 81.8206 75.1521C81.3952 74.9688 81.0579 74.7048 80.8086 74.3601C80.5592 74.0154 80.4309 73.6084 80.4236 73.1391H82.0736C82.0956 73.4544 82.2056 73.7038 82.4036 73.8871C82.6089 74.0704 82.8876 74.1621 83.2396 74.1621C83.5989 74.1621 83.8812 74.0778 84.0866 73.9091C84.2919 73.7331 84.3946 73.5058 84.3946 73.2271C84.3946 72.9998 84.3249 72.8128 84.1856 72.6661C84.0462 72.5194 83.8702 72.4058 83.6576 72.3251C83.4522 72.2371 83.1662 72.1418 82.7996 72.0391C82.3009 71.8924 81.8939 71.7494 81.5786 71.6101C81.2706 71.4634 81.0029 71.2471 80.7756 70.9611C80.5556 70.6678 80.4456 70.2791 80.4456 69.7951C80.4456 69.3404 80.5592 68.9444 80.7866 68.6071C81.0139 68.2698 81.3329 68.0131 81.7436 67.8371C82.1542 67.6538 82.6236 67.5621 83.1516 67.5621C83.9436 67.5621 84.5852 67.7564 85.0766 68.1451C85.5752 68.5264 85.8502 69.0618 85.9016 69.7511H84.2076C84.1929 69.4871 84.0792 69.2708 83.8666 69.1021C83.6612 68.9261 83.3862 68.8381 83.0416 68.8381C82.7409 68.8381 82.4989 68.9151 82.3156 69.0691C82.1396 69.2231 82.0516 69.4468 82.0516 69.7401C82.0516 69.9454 82.1176 70.1178 82.2496 70.2571C82.3889 70.3891 82.5576 70.4991 82.7556 70.5871C82.9609 70.6678 83.2469 70.7631 83.6136 70.8731C84.1122 71.0198 84.5192 71.1664 84.8346 71.3131C85.1499 71.4598 85.4212 71.6798 85.6486 71.9731C85.8759 72.2664 85.9896 72.6514 85.9896 73.1281C85.9896 73.5388 85.8832 73.9201 85.6706 74.2721C85.4579 74.6241 85.1462 74.9064 84.7356 75.1191C84.3249 75.3244 83.8372 75.4271 83.2726 75.4271Z" fill="#D2DDE5"/>
<path d="M72.66 98.5664V102.447C72.66 102.993 72.792 103.398 73.056 103.662C73.3259 103.926 73.6984 104.058 74.1736 104.058C74.643 104.058 75.0096 103.926 75.2736 103.662C75.5435 103.398 75.6784 102.993 75.6784 102.447V98.5664H76.4792V102.438C76.4792 102.949 76.3766 103.38 76.1712 103.732C75.9659 104.078 75.6872 104.336 75.3352 104.506C74.9891 104.676 74.599 104.762 74.1648 104.762C73.7307 104.762 73.3376 104.676 72.9856 104.506C72.6395 104.336 72.3638 104.078 72.1584 103.732C71.959 103.38 71.8592 102.949 71.8592 102.438V98.5664H72.66ZM78.7919 100.766C78.9503 100.491 79.185 100.262 79.4959 100.08C79.8127 99.8922 80.1794 99.7984 80.5959 99.7984C81.0242 99.7984 81.4114 99.901 81.7575 100.106C82.1095 100.312 82.3852 100.602 82.5847 100.978C82.7842 101.347 82.8839 101.778 82.8839 102.271C82.8839 102.758 82.7842 103.192 82.5847 103.574C82.3852 103.955 82.1095 104.251 81.7575 104.462C81.4114 104.674 81.0242 104.779 80.5959 104.779C80.1852 104.779 79.8215 104.688 79.5047 104.506C79.1938 104.319 78.9562 104.087 78.7919 103.811V106.988H77.9911V99.8776H78.7919V100.766ZM82.0655 102.271C82.0655 101.907 81.9922 101.591 81.8455 101.321C81.6988 101.051 81.4994 100.846 81.2471 100.705C81.0007 100.564 80.7279 100.494 80.4287 100.494C80.1354 100.494 79.8626 100.567 79.6103 100.714C79.3639 100.854 79.1644 101.063 79.0119 101.338C78.8652 101.608 78.7919 101.922 78.7919 102.28C78.7919 102.644 78.8652 102.963 79.0119 103.239C79.1644 103.509 79.3639 103.717 79.6103 103.864C79.8626 104.005 80.1354 104.075 80.4287 104.075C80.7279 104.075 81.0007 104.005 81.2471 103.864C81.4994 103.717 81.6988 103.509 81.8455 103.239C81.9922 102.963 82.0655 102.641 82.0655 102.271ZM83.8148 102.271C83.8148 101.778 83.9145 101.347 84.114 100.978C84.3134 100.602 84.5862 100.312 84.9324 100.106C85.2844 99.901 85.6774 99.7984 86.1116 99.7984C86.487 99.7984 86.8361 99.8864 87.1588 100.062C87.4814 100.232 87.7278 100.458 87.898 100.74V98.188H88.7076V104.7H87.898V103.794C87.7396 104.081 87.5049 104.319 87.194 104.506C86.883 104.688 86.5193 104.779 86.1028 104.779C85.6745 104.779 85.2844 104.674 84.9324 104.462C84.5862 104.251 84.3134 103.955 84.114 103.574C83.9145 103.192 83.8148 102.758 83.8148 102.271ZM87.898 102.28C87.898 101.916 87.8246 101.599 87.678 101.33C87.5313 101.06 87.3318 100.854 87.0796 100.714C86.8332 100.567 86.5604 100.494 86.2612 100.494C85.962 100.494 85.6892 100.564 85.4428 100.705C85.1964 100.846 84.9998 101.051 84.8532 101.321C84.7065 101.591 84.6332 101.907 84.6332 102.271C84.6332 102.641 84.7065 102.963 84.8532 103.239C84.9998 103.509 85.1964 103.717 85.4428 103.864C85.6892 104.005 85.962 104.075 86.2612 104.075C86.5604 104.075 86.8332 104.005 87.0796 103.864C87.3318 103.717 87.5313 103.509 87.678 103.239C87.8246 102.963 87.898 102.644 87.898 102.28ZM89.9376 102.271C89.9376 101.778 90.0374 101.347 90.2368 100.978C90.4363 100.602 90.7091 100.312 91.0552 100.106C91.4072 99.901 91.7974 99.7984 92.2256 99.7984C92.6481 99.7984 93.0147 99.8893 93.3257 100.071C93.6366 100.253 93.8683 100.482 94.0209 100.758V99.8776H94.8305V104.7H94.0209V103.802C93.8625 104.084 93.6249 104.319 93.3081 104.506C92.9971 104.688 92.6334 104.779 92.2169 104.779C91.7886 104.779 91.4014 104.674 91.0552 104.462C90.7091 104.251 90.4363 103.955 90.2368 103.574C90.0374 103.192 89.9376 102.758 89.9376 102.271ZM94.0209 102.28C94.0209 101.916 93.9475 101.599 93.8009 101.33C93.6542 101.06 93.4547 100.854 93.2025 100.714C92.9561 100.567 92.6833 100.494 92.3841 100.494C92.0849 100.494 91.8121 100.564 91.5657 100.705C91.3192 100.846 91.1227 101.051 90.9761 101.321C90.8294 101.591 90.756 101.907 90.756 102.271C90.756 102.641 90.8294 102.963 90.9761 103.239C91.1227 103.509 91.3192 103.717 91.5657 103.864C91.8121 104.005 92.0849 104.075 92.3841 104.075C92.6833 104.075 92.9561 104.005 93.2025 103.864C93.4547 103.717 93.6542 103.509 93.8009 103.239C93.9475 102.963 94.0209 102.644 94.0209 102.28ZM97.3365 100.538V103.38C97.3365 103.615 97.3864 103.782 97.4861 103.882C97.5859 103.975 97.7589 104.022 98.0053 104.022H98.5949V104.7H97.8733C97.4275 104.7 97.0931 104.597 96.8701 104.392C96.6472 104.187 96.5357 103.849 96.5357 103.38V100.538H95.9109V99.8776H96.5357V98.6632H97.3365V99.8776H98.5949V100.538H97.3365ZM104.141 102.104C104.141 102.256 104.132 102.418 104.115 102.588H100.26C100.29 103.063 100.451 103.436 100.744 103.706C101.044 103.97 101.404 104.102 101.827 104.102C102.173 104.102 102.46 104.022 102.689 103.864C102.924 103.7 103.088 103.483 103.182 103.213H104.044C103.915 103.676 103.657 104.055 103.27 104.348C102.883 104.635 102.402 104.779 101.827 104.779C101.369 104.779 100.959 104.676 100.595 104.471C100.237 104.266 99.9553 103.975 99.75 103.6C99.5447 103.219 99.442 102.779 99.442 102.28C99.442 101.781 99.5417 101.344 99.7412 100.969C99.9407 100.593 100.219 100.306 100.577 100.106C100.941 99.901 101.357 99.7984 101.827 99.7984C102.284 99.7984 102.689 99.8981 103.041 100.098C103.393 100.297 103.663 100.573 103.851 100.925C104.044 101.271 104.141 101.664 104.141 102.104ZM103.314 101.937C103.314 101.632 103.247 101.371 103.112 101.154C102.977 100.931 102.792 100.763 102.557 100.652C102.328 100.535 102.073 100.476 101.792 100.476C101.387 100.476 101.041 100.605 100.753 100.863C100.472 101.121 100.31 101.479 100.269 101.937H103.314ZM105.075 102.271C105.075 101.778 105.175 101.347 105.374 100.978C105.574 100.602 105.846 100.312 106.193 100.106C106.545 99.901 106.938 99.7984 107.372 99.7984C107.747 99.7984 108.096 99.8864 108.419 100.062C108.742 100.232 108.988 100.458 109.158 100.74V98.188H109.968V104.7H109.158V103.794C109 104.081 108.765 104.319 108.454 104.506C108.143 104.688 107.78 104.779 107.363 104.779C106.935 104.779 106.545 104.674 106.193 104.462C105.846 104.251 105.574 103.955 105.374 103.574C105.175 103.192 105.075 102.758 105.075 102.271ZM109.158 102.28C109.158 101.916 109.085 101.599 108.938 101.33C108.792 101.06 108.592 100.854 108.34 100.714C108.093 100.567 107.821 100.494 107.521 100.494C107.222 100.494 106.949 100.564 106.703 100.705C106.457 100.846 106.26 101.051 106.113 101.321C105.967 101.591 105.893 101.907 105.893 102.271C105.893 102.641 105.967 102.963 106.113 103.239C106.26 103.509 106.457 103.717 106.703 103.864C106.949 104.005 107.222 104.075 107.521 104.075C107.821 104.075 108.093 104.005 108.34 103.864C108.592 103.717 108.792 103.509 108.938 103.239C109.085 102.963 109.158 102.644 109.158 102.28ZM111.752 104.753C111.6 104.753 111.471 104.7 111.365 104.594C111.26 104.489 111.207 104.36 111.207 104.207C111.207 104.055 111.26 103.926 111.365 103.82C111.471 103.714 111.6 103.662 111.752 103.662C111.899 103.662 112.022 103.714 112.122 103.82C112.228 103.926 112.28 104.055 112.28 104.207C112.28 104.36 112.228 104.489 112.122 104.594C112.022 104.7 111.899 104.753 111.752 104.753ZM111.752 100.986C111.6 100.986 111.471 100.934 111.365 100.828C111.26 100.722 111.207 100.593 111.207 100.441C111.207 100.288 111.26 100.159 111.365 100.054C111.471 99.948 111.6 99.8952 111.752 99.8952C111.899 99.8952 112.022 99.948 112.122 100.054C112.228 100.159 112.28 100.288 112.28 100.441C112.28 100.593 112.228 100.722 112.122 100.828C112.022 100.934 111.899 100.986 111.752 100.986ZM115.725 99.068V98.3376H117.38V104.7H116.57V99.068H115.725ZM118.931 101.453C118.931 100.444 119.096 99.6576 119.424 99.0944C119.753 98.5253 120.328 98.2408 121.149 98.2408C121.964 98.2408 122.536 98.5253 122.865 99.0944C123.194 99.6576 123.358 100.444 123.358 101.453C123.358 102.479 123.194 103.277 122.865 103.846C122.536 104.415 121.964 104.7 121.149 104.7C120.328 104.7 119.753 104.415 119.424 103.846C119.096 103.277 118.931 102.479 118.931 101.453ZM122.566 101.453C122.566 100.942 122.531 100.511 122.46 100.159C122.396 99.8013 122.258 99.5138 122.047 99.2968C121.841 99.0797 121.542 98.9712 121.149 98.9712C120.75 98.9712 120.445 99.0797 120.234 99.2968C120.028 99.5138 119.891 99.8013 119.82 100.159C119.756 100.511 119.723 100.942 119.723 101.453C119.723 101.981 119.756 102.424 119.82 102.782C119.891 103.139 120.028 103.427 120.234 103.644C120.445 103.861 120.75 103.97 121.149 103.97C121.542 103.97 121.841 103.861 122.047 103.644C122.258 103.427 122.396 103.139 122.46 102.782C122.531 102.424 122.566 101.981 122.566 101.453ZM125.02 104.753C124.868 104.753 124.739 104.7 124.633 104.594C124.528 104.489 124.475 104.36 124.475 104.207C124.475 104.055 124.528 103.926 124.633 103.82C124.739 103.714 124.868 103.662 125.02 103.662C125.167 103.662 125.29 103.714 125.39 103.82C125.496 103.926 125.548 104.055 125.548 104.207C125.548 104.36 125.496 104.489 125.39 104.594C125.29 104.7 125.167 104.753 125.02 104.753ZM125.02 100.986C124.868 100.986 124.739 100.934 124.633 100.828C124.528 100.722 124.475 100.593 124.475 100.441C124.475 100.288 124.528 100.159 124.633 100.054C124.739 99.948 124.868 99.8952 125.02 99.8952C125.167 99.8952 125.29 99.948 125.39 100.054C125.496 100.159 125.548 100.288 125.548 100.441C125.548 100.593 125.496 100.722 125.39 100.828C125.29 100.934 125.167 100.986 125.02 100.986ZM126.665 99.9392C126.706 99.3994 126.914 98.977 127.29 98.672C127.665 98.3669 128.152 98.2144 128.751 98.2144C129.15 98.2144 129.493 98.2877 129.78 98.4344C130.074 98.5752 130.294 98.7688 130.44 99.0152C130.593 99.2616 130.669 99.5402 130.669 99.8512C130.669 100.215 130.563 100.529 130.352 100.793C130.147 101.057 129.877 101.227 129.543 101.303V101.347C129.924 101.441 130.226 101.626 130.449 101.902C130.672 102.177 130.783 102.538 130.783 102.984C130.783 103.318 130.707 103.62 130.555 103.89C130.402 104.154 130.173 104.363 129.868 104.515C129.563 104.668 129.196 104.744 128.768 104.744C128.146 104.744 127.636 104.583 127.237 104.26C126.838 103.931 126.615 103.468 126.568 102.87H127.343C127.384 103.222 127.527 103.509 127.774 103.732C128.02 103.955 128.349 104.066 128.759 104.066C129.17 104.066 129.481 103.961 129.692 103.75C129.909 103.532 130.018 103.254 130.018 102.914C130.018 102.474 129.871 102.157 129.578 101.963C129.284 101.77 128.842 101.673 128.249 101.673H128.047V101.004H128.258C128.798 100.998 129.205 100.91 129.481 100.74C129.757 100.564 129.895 100.294 129.895 99.9304C129.895 99.6194 129.792 99.3701 129.587 99.1824C129.387 98.9946 129.1 98.9008 128.724 98.9008C128.36 98.9008 128.067 98.9946 127.844 99.1824C127.621 99.3701 127.489 99.6224 127.448 99.9392H126.665ZM135.587 99.8512C135.458 99.2 135.056 98.8744 134.381 98.8744C133.859 98.8744 133.469 99.0768 133.211 99.4816C132.953 99.8805 132.827 100.54 132.833 101.462C132.968 101.156 133.191 100.919 133.501 100.749C133.818 100.573 134.17 100.485 134.557 100.485C135.162 100.485 135.643 100.672 136.001 101.048C136.364 101.423 136.546 101.943 136.546 102.606C136.546 103.004 136.467 103.362 136.309 103.679C136.156 103.996 135.921 104.248 135.605 104.436C135.294 104.624 134.915 104.718 134.469 104.718C133.865 104.718 133.393 104.583 133.053 104.313C132.712 104.043 132.475 103.67 132.34 103.195C132.205 102.72 132.137 102.133 132.137 101.435C132.137 99.2821 132.888 98.2056 134.39 98.2056C134.965 98.2056 135.417 98.361 135.745 98.672C136.074 98.9829 136.268 99.376 136.326 99.8512H135.587ZM134.39 101.162C134.138 101.162 133.9 101.215 133.677 101.321C133.455 101.42 133.273 101.576 133.132 101.787C132.997 101.992 132.929 102.245 132.929 102.544C132.929 102.99 133.059 103.354 133.317 103.635C133.575 103.911 133.944 104.049 134.425 104.049C134.836 104.049 135.162 103.923 135.402 103.67C135.649 103.412 135.772 103.066 135.772 102.632C135.772 102.174 135.655 101.816 135.42 101.558C135.185 101.294 134.842 101.162 134.39 101.162ZM137.635 102.271C137.635 101.778 137.735 101.347 137.935 100.978C138.134 100.602 138.407 100.312 138.753 100.106C139.105 99.901 139.495 99.7984 139.923 99.7984C140.346 99.7984 140.712 99.8893 141.023 100.071C141.334 100.253 141.566 100.482 141.719 100.758V99.8776H142.528V104.7H141.719V103.802C141.56 104.084 141.323 104.319 141.006 104.506C140.695 104.688 140.331 104.779 139.915 104.779C139.486 104.779 139.099 104.674 138.753 104.462C138.407 104.251 138.134 103.955 137.935 103.574C137.735 103.192 137.635 102.758 137.635 102.271ZM141.719 102.28C141.719 101.916 141.645 101.599 141.499 101.33C141.352 101.06 141.152 100.854 140.9 100.714C140.654 100.567 140.381 100.494 140.082 100.494C139.783 100.494 139.51 100.564 139.263 100.705C139.017 100.846 138.82 101.051 138.674 101.321C138.527 101.591 138.454 101.907 138.454 102.271C138.454 102.641 138.527 102.963 138.674 103.239C138.82 103.509 139.017 103.717 139.263 103.864C139.51 104.005 139.783 104.075 140.082 104.075C140.381 104.075 140.654 104.005 140.9 103.864C141.152 103.717 141.352 103.509 141.499 103.239C141.645 102.963 141.719 102.644 141.719 102.28ZM149.857 99.7896C150.232 99.7896 150.567 99.8688 150.86 100.027C151.153 100.18 151.385 100.411 151.555 100.722C151.725 101.033 151.81 101.412 151.81 101.858V104.7H151.018V101.972C151.018 101.491 150.898 101.124 150.657 100.872C150.423 100.614 150.103 100.485 149.698 100.485C149.282 100.485 148.95 100.62 148.704 100.89C148.457 101.154 148.334 101.538 148.334 102.042V104.7H147.542V101.972C147.542 101.491 147.422 101.124 147.181 100.872C146.947 100.614 146.627 100.485 146.222 100.485C145.806 100.485 145.474 100.62 145.228 100.89C144.981 101.154 144.858 101.538 144.858 102.042V104.7H144.057V99.8776H144.858V100.573C145.017 100.32 145.228 100.127 145.492 99.992C145.762 99.857 146.058 99.7896 146.381 99.7896C146.785 99.7896 147.143 99.8805 147.454 100.062C147.765 100.244 147.997 100.511 148.149 100.863C148.284 100.523 148.507 100.259 148.818 100.071C149.129 99.8834 149.475 99.7896 149.857 99.7896Z" fill="#9EA7AE"/>
<path d="M90.3261 70.895C90.3261 70.2218 90.4779 69.6179 90.7815 69.0833C91.0851 68.5421 91.4976 68.1197 92.019 67.8161C92.547 67.5125 93.1311 67.3607 93.7713 67.3607C94.5237 67.3607 95.1804 67.5422 95.7414 67.9052C96.3024 68.2682 96.7116 68.783 96.969 69.4496H95.8899C95.6985 69.0338 95.4213 68.7137 95.0583 68.4893C94.7019 68.2649 94.2729 68.1527 93.7713 68.1527C93.2895 68.1527 92.8572 68.2649 92.4744 68.4893C92.0916 68.7137 91.7913 69.0338 91.5735 69.4496C91.3557 69.8588 91.2468 70.3406 91.2468 70.895C91.2468 71.4428 91.3557 71.9246 91.5735 72.3404C91.7913 72.7496 92.0916 73.0664 92.4744 73.2908C92.8572 73.5152 93.2895 73.6274 93.7713 73.6274C94.2729 73.6274 94.7019 73.5185 95.0583 73.3007C95.4213 73.0763 95.6985 72.7562 95.8899 72.3404H96.969C96.7116 73.0004 96.3024 73.5119 95.7414 73.8749C95.1804 74.2313 94.5237 74.4095 93.7713 74.4095C93.1311 74.4095 92.547 74.261 92.019 73.964C91.4976 73.6604 91.0851 73.2413 90.7815 72.7067C90.4779 72.1721 90.3261 71.5682 90.3261 70.895ZM99.409 69.806C99.5674 69.4958 99.7918 69.2549 100.082 69.0833C100.379 68.9117 100.739 68.8259 101.161 68.8259V69.7565H100.924C99.9139 69.7565 99.409 70.3043 99.409 71.3999V74.3501H98.5081V68.9249H99.409V69.806ZM107.349 71.4296C107.349 71.6012 107.339 71.7827 107.32 71.9741H102.983C103.016 72.5087 103.198 72.9278 103.528 73.2314C103.864 73.5284 104.27 73.6769 104.746 73.6769C105.135 73.6769 105.458 73.5878 105.716 73.4096C105.98 73.2248 106.165 72.9806 106.27 72.677H107.24C107.095 73.1984 106.805 73.6241 106.369 73.9541C105.934 74.2775 105.392 74.4392 104.746 74.4392C104.231 74.4392 103.769 74.3237 103.36 74.0927C102.957 73.8617 102.64 73.535 102.409 73.1126C102.178 72.6836 102.063 72.1886 102.063 71.6276C102.063 71.0666 102.175 70.5749 102.399 70.1525C102.624 69.7301 102.937 69.4067 103.34 69.1823C103.749 68.9513 104.218 68.8358 104.746 68.8358C105.26 68.8358 105.716 68.948 106.112 69.1724C106.508 69.3968 106.811 69.707 107.023 70.103C107.24 70.4924 107.349 70.9346 107.349 71.4296ZM106.419 71.2415C106.419 70.8983 106.343 70.6046 106.191 70.3604C106.039 70.1096 105.831 69.9215 105.567 69.7961C105.31 69.6641 105.023 69.5981 104.706 69.5981C104.251 69.5981 103.861 69.7433 103.538 70.0337C103.221 70.3241 103.039 70.7267 102.993 71.2415H106.419ZM108.4 71.6177C108.4 71.0633 108.512 70.5782 108.736 70.1624C108.961 69.74 109.268 69.4133 109.657 69.1823C110.053 68.9513 110.495 68.8358 110.984 68.8358C111.406 68.8358 111.799 68.9348 112.162 69.1328C112.525 69.3242 112.802 69.5783 112.993 69.8951V67.0241H113.904V74.3501H112.993V73.3304C112.815 73.6538 112.551 73.9211 112.201 74.1323C111.852 74.3369 111.442 74.4392 110.974 74.4392C110.492 74.4392 110.053 74.3204 109.657 74.0828C109.268 73.8452 108.961 73.5119 108.736 73.0829C108.512 72.6539 108.4 72.1655 108.4 71.6177ZM112.993 71.6276C112.993 71.2184 112.911 70.862 112.746 70.5584C112.581 70.2548 112.356 70.0238 112.073 69.8654C111.795 69.7004 111.489 69.6179 111.152 69.6179C110.815 69.6179 110.508 69.6971 110.231 69.8555C109.954 70.0139 109.733 70.2449 109.568 70.5485C109.403 70.8521 109.32 71.2085 109.32 71.6177C109.32 72.0335 109.403 72.3965 109.568 72.7067C109.733 73.0103 109.954 73.2446 110.231 73.4096C110.508 73.568 110.815 73.6472 111.152 73.6472C111.489 73.6472 111.795 73.568 112.073 73.4096C112.356 73.2446 112.581 73.0103 112.746 72.7067C112.911 72.3965 112.993 72.0368 112.993 71.6276ZM116.09 68.0438C115.918 68.0438 115.773 67.9844 115.654 67.8656C115.536 67.7468 115.476 67.6016 115.476 67.43C115.476 67.2584 115.536 67.1132 115.654 66.9944C115.773 66.8756 115.918 66.8162 116.09 66.8162C116.255 66.8162 116.394 66.8756 116.506 66.9944C116.625 67.1132 116.684 67.2584 116.684 67.43C116.684 67.6016 116.625 67.7468 116.506 67.8656C116.394 67.9844 116.255 68.0438 116.09 68.0438ZM116.526 68.9249V74.3501H115.625V68.9249H116.526ZM119.358 69.6674V72.8651C119.358 73.1291 119.414 73.3172 119.526 73.4294C119.638 73.535 119.833 73.5878 120.11 73.5878H120.774V74.3501H119.962C119.46 74.3501 119.084 74.2346 118.833 74.0036C118.582 73.7726 118.457 73.3931 118.457 72.8651V69.6674H117.754V68.9249H118.457V67.5587H119.358V68.9249H120.774V69.6674H119.358ZM127.088 74.4194C126.633 74.4194 126.224 74.3402 125.861 74.1818C125.504 74.0168 125.224 73.7924 125.019 73.5086C124.815 73.2182 124.709 72.8849 124.702 72.5087H125.663C125.696 72.8321 125.828 73.106 126.059 73.3304C126.296 73.5482 126.64 73.6571 127.088 73.6571C127.517 73.6571 127.854 73.5515 128.098 73.3403C128.349 73.1225 128.474 72.8453 128.474 72.5087C128.474 72.2447 128.402 72.0302 128.257 71.8652C128.111 71.7002 127.93 71.5748 127.712 71.489C127.494 71.4032 127.201 71.3108 126.831 71.2118C126.376 71.093 126.009 70.9742 125.732 70.8554C125.461 70.7366 125.227 70.5518 125.029 70.301C124.838 70.0436 124.742 69.7004 124.742 69.2714C124.742 68.8952 124.838 68.5619 125.029 68.2715C125.221 67.9811 125.488 67.7567 125.831 67.5983C126.181 67.4399 126.58 67.3607 127.029 67.3607C127.676 67.3607 128.204 67.5224 128.613 67.8458C129.029 68.1692 129.263 68.5982 129.316 69.1328H128.326C128.293 68.8688 128.154 68.6378 127.91 68.4398C127.666 68.2352 127.342 68.1329 126.94 68.1329C126.564 68.1329 126.257 68.2319 126.019 68.4299C125.782 68.6213 125.663 68.8919 125.663 69.2417C125.663 69.4925 125.732 69.6971 125.871 69.8555C126.016 70.0139 126.191 70.136 126.395 70.2218C126.607 70.301 126.9 70.3934 127.276 70.499C127.732 70.6244 128.098 70.7498 128.375 70.8752C128.653 70.994 128.89 71.1821 129.088 71.4395C129.286 71.6903 129.385 72.0335 129.385 72.4691C129.385 72.8057 129.296 73.1225 129.118 73.4195C128.94 73.7165 128.676 73.9574 128.326 74.1422C127.976 74.327 127.564 74.4194 127.088 74.4194ZM138.136 68.9249L136.443 74.3501H135.512L134.206 70.0436L132.899 74.3501H131.968L130.265 68.9249H131.186L132.433 73.4789L133.78 68.9249H134.701L136.017 73.4888L137.245 68.9249H138.136ZM139.693 68.0438C139.522 68.0438 139.376 67.9844 139.258 67.8656C139.139 67.7468 139.079 67.6016 139.079 67.43C139.079 67.2584 139.139 67.1132 139.258 66.9944C139.376 66.8756 139.522 66.8162 139.693 66.8162C139.858 66.8162 139.997 66.8756 140.109 66.9944C140.228 67.1132 140.287 67.2584 140.287 67.43C140.287 67.6016 140.228 67.7468 140.109 67.8656C139.997 67.9844 139.858 68.0438 139.693 68.0438ZM140.129 68.9249V74.3501H139.228V68.9249H140.129ZM143.783 74.4392C143.367 74.4392 142.994 74.3699 142.664 74.2313C142.334 74.0861 142.074 73.8881 141.882 73.6373C141.691 73.3799 141.585 73.0862 141.565 72.7562H142.496C142.522 73.0268 142.648 73.2479 142.872 73.4195C143.103 73.5911 143.403 73.6769 143.773 73.6769C144.116 73.6769 144.387 73.601 144.585 73.4492C144.783 73.2974 144.882 73.106 144.882 72.875C144.882 72.6374 144.776 72.4625 144.565 72.3503C144.354 72.2315 144.027 72.116 143.585 72.0038C143.182 71.8982 142.852 71.7926 142.595 71.687C142.344 71.5748 142.126 71.4131 141.942 71.2019C141.763 70.9841 141.674 70.7003 141.674 70.3505C141.674 70.0733 141.757 69.8192 141.922 69.5882C142.087 69.3572 142.321 69.1757 142.625 69.0437C142.928 68.9051 143.275 68.8358 143.664 68.8358C144.265 68.8358 144.75 68.9876 145.119 69.2912C145.489 69.5948 145.687 70.0106 145.713 70.5386H144.813C144.793 70.2548 144.677 70.0271 144.466 69.8555C144.261 69.6839 143.984 69.5981 143.634 69.5981C143.311 69.5981 143.054 69.6674 142.862 69.806C142.671 69.9446 142.575 70.1261 142.575 70.3505C142.575 70.5287 142.631 70.6772 142.743 70.796C142.862 70.9082 143.007 71.0006 143.179 71.0732C143.357 71.1392 143.601 71.2151 143.912 71.3009C144.301 71.4065 144.618 71.5121 144.862 71.6177C145.106 71.7167 145.314 71.8685 145.486 72.0731C145.664 72.2777 145.756 72.545 145.763 72.875C145.763 73.172 145.68 73.4393 145.515 73.6769C145.35 73.9145 145.116 74.1026 144.813 74.2412C144.516 74.3732 144.172 74.4392 143.783 74.4392ZM149.153 74.4392C148.737 74.4392 148.365 74.3699 148.035 74.2313C147.705 74.0861 147.444 73.8881 147.252 73.6373C147.061 73.3799 146.955 73.0862 146.936 72.7562H147.866C147.893 73.0268 148.018 73.2479 148.242 73.4195C148.473 73.5911 148.774 73.6769 149.143 73.6769C149.487 73.6769 149.757 73.601 149.955 73.4492C150.153 73.2974 150.252 73.106 150.252 72.875C150.252 72.6374 150.147 72.4625 149.935 72.3503C149.724 72.2315 149.397 72.116 148.955 72.0038C148.553 71.8982 148.223 71.7926 147.965 71.687C147.714 71.5748 147.497 71.4131 147.312 71.2019C147.134 70.9841 147.045 70.7003 147.045 70.3505C147.045 70.0733 147.127 69.8192 147.292 69.5882C147.457 69.3572 147.691 69.1757 147.995 69.0437C148.299 68.9051 148.645 68.8358 149.034 68.8358C149.635 68.8358 150.12 68.9876 150.49 69.2912C150.859 69.5948 151.057 70.0106 151.084 70.5386H150.183C150.163 70.2548 150.048 70.0271 149.836 69.8555C149.632 69.6839 149.355 69.5981 149.005 69.5981C148.681 69.5981 148.424 69.6674 148.233 69.806C148.041 69.9446 147.945 70.1261 147.945 70.3505C147.945 70.5287 148.002 70.6772 148.114 70.796C148.233 70.9082 148.378 71.0006 148.549 71.0732C148.728 71.1392 148.972 71.2151 149.282 71.3009C149.671 71.4065 149.988 71.5121 150.232 71.6177C150.477 71.7167 150.684 71.8685 150.856 72.0731C151.034 72.2777 151.127 72.545 151.133 72.875C151.133 73.172 151.051 73.4393 150.886 73.6769C150.721 73.9145 150.486 74.1026 150.183 74.2412C149.886 74.3732 149.543 74.4392 149.153 74.4392ZM157.553 71.4296C157.553 71.6012 157.543 71.7827 157.523 71.9741H153.187C153.22 72.5087 153.402 72.9278 153.732 73.2314C154.068 73.5284 154.474 73.6769 154.949 73.6769C155.339 73.6769 155.662 73.5878 155.92 73.4096C156.184 73.2248 156.368 72.9806 156.474 72.677H157.444C157.299 73.1984 157.009 73.6241 156.573 73.9541C156.137 74.2775 155.596 74.4392 154.949 74.4392C154.435 74.4392 153.973 74.3237 153.563 74.0927C153.161 73.8617 152.844 73.535 152.613 73.1126C152.382 72.6836 152.266 72.1886 152.266 71.6276C152.266 71.0666 152.379 70.5749 152.603 70.1525C152.827 69.7301 153.141 69.4067 153.544 69.1823C153.953 68.9513 154.421 68.8358 154.949 68.8358C155.464 68.8358 155.92 68.948 156.316 69.1724C156.712 69.3968 157.015 69.707 157.226 70.103C157.444 70.4924 157.553 70.9346 157.553 71.4296ZM156.622 71.2415C156.622 70.8983 156.547 70.6046 156.395 70.3604C156.243 70.1096 156.035 69.9215 155.771 69.7961C155.514 69.6641 155.227 69.5981 154.91 69.5981C154.454 69.5981 154.065 69.7433 153.742 70.0337C153.425 70.3241 153.243 70.7267 153.197 71.2415H156.622ZM159.227 74.4095C159.056 74.4095 158.911 74.3501 158.792 74.2313C158.673 74.1125 158.614 73.9673 158.614 73.7957C158.614 73.6241 158.673 73.4789 158.792 73.3601C158.911 73.2413 159.056 73.1819 159.227 73.1819C159.392 73.1819 159.531 73.2413 159.643 73.3601C159.762 73.4789 159.821 73.6241 159.821 73.7957C159.821 73.9673 159.762 74.1125 159.643 74.2313C159.531 74.3501 159.392 74.4095 159.227 74.4095Z" fill="#9EA7AE"/>
<path d="M170.933 136.192V145.694C170.933 146.824 171.226 147.675 171.812 148.247C172.413 148.819 173.242 149.105 174.301 149.105C175.373 149.105 176.203 148.819 176.789 148.247C177.389 147.675 177.69 146.824 177.69 145.694V136.192H180.135V145.652C180.135 146.867 179.87 147.897 179.341 148.74C178.812 149.584 178.104 150.213 177.218 150.628C176.331 151.043 175.352 151.25 174.279 151.25C173.207 151.25 172.227 151.043 171.341 150.628C170.468 150.213 169.775 149.584 169.26 148.74C168.745 147.897 168.488 146.867 168.488 145.652V136.192H170.933ZM188.66 151.25C187.659 151.25 186.758 151.078 185.957 150.735C185.156 150.378 184.527 149.877 184.07 149.234C183.612 148.59 183.383 147.839 183.383 146.981H186C186.057 147.625 186.308 148.154 186.751 148.569C187.208 148.983 187.845 149.191 188.66 149.191C189.504 149.191 190.161 148.991 190.633 148.59C191.105 148.176 191.341 147.646 191.341 147.003C191.341 146.502 191.191 146.095 190.891 145.78C190.605 145.466 190.24 145.223 189.797 145.051C189.368 144.879 188.767 144.693 187.995 144.493C187.023 144.236 186.229 143.978 185.614 143.721C185.013 143.449 184.499 143.035 184.07 142.477C183.641 141.919 183.426 141.176 183.426 140.246C183.426 139.388 183.641 138.637 184.07 137.994C184.499 137.35 185.099 136.857 185.871 136.514C186.644 136.171 187.537 135.999 188.553 135.999C189.997 135.999 191.177 136.364 192.092 137.093C193.021 137.808 193.536 138.795 193.636 140.053H190.934C190.891 139.51 190.633 139.045 190.161 138.659C189.69 138.273 189.067 138.08 188.295 138.08C187.595 138.08 187.023 138.258 186.579 138.616C186.136 138.973 185.914 139.488 185.914 140.16C185.914 140.618 186.05 140.997 186.322 141.297C186.608 141.583 186.965 141.812 187.394 141.984C187.823 142.155 188.41 142.341 189.153 142.541C190.14 142.813 190.941 143.085 191.556 143.356C192.185 143.628 192.714 144.05 193.143 144.622C193.586 145.18 193.808 145.93 193.808 146.874C193.808 147.632 193.601 148.347 193.186 149.019C192.785 149.691 192.192 150.235 191.406 150.649C190.633 151.05 189.718 151.25 188.66 151.25ZM201.991 136.192C203.579 136.192 204.966 136.5 206.153 137.114C207.354 137.715 208.276 138.587 208.92 139.731C209.578 140.861 209.906 142.184 209.906 143.7C209.906 145.215 209.578 146.531 208.92 147.646C208.276 148.762 207.354 149.62 206.153 150.22C204.966 150.807 203.579 151.1 201.991 151.1H197.122V136.192H201.991ZM201.991 149.105C203.736 149.105 205.073 148.633 206.003 147.689C206.932 146.746 207.397 145.416 207.397 143.7C207.397 141.969 206.932 140.618 206.003 139.646C205.073 138.673 203.736 138.187 201.991 138.187H199.568V149.105H201.991Z" fill="#D2DDE5"/>
<path d="M72.4862 133.275V130.301H78.435V151.15H75.146V133.275H72.4862ZM83.486 140.454C83.486 137.155 84.039 134.581 85.1448 132.732C86.2698 130.863 88.1955 129.929 90.922 129.929C93.6486 129.929 95.5648 130.863 96.6706 132.732C97.7956 134.581 98.358 137.155 98.358 140.454C98.358 143.79 97.7956 146.402 96.6706 148.29C95.5648 150.158 93.6486 151.093 90.922 151.093C88.1955 151.093 86.2698 150.158 85.1448 148.29C84.039 146.402 83.486 143.79 83.486 140.454ZM95.1548 140.454C95.1548 138.909 95.05 137.603 94.8402 136.535C94.6496 135.468 94.2492 134.6 93.639 133.933C93.0289 133.246 92.1232 132.903 90.922 132.903C89.7208 132.903 88.8152 133.246 88.205 133.933C87.5949 134.6 87.185 135.468 86.9752 136.535C86.7846 137.603 86.6892 138.909 86.6892 140.454C86.6892 142.055 86.7846 143.399 86.9752 144.486C87.1659 145.573 87.5663 146.45 88.1764 147.117C88.8056 147.785 89.7208 148.118 90.922 148.118C92.1232 148.118 93.0289 147.785 93.639 147.117C94.2682 146.45 94.6782 145.573 94.8688 144.486C95.0595 143.399 95.1548 142.055 95.1548 140.454ZM102.38 140.454C102.38 137.155 102.933 134.581 104.039 132.732C105.164 130.863 107.089 129.929 109.816 129.929C112.542 129.929 114.459 130.863 115.565 132.732C116.689 134.581 117.252 137.155 117.252 140.454C117.252 143.79 116.689 146.402 115.565 148.29C114.459 150.158 112.542 151.093 109.816 151.093C107.089 151.093 105.164 150.158 104.039 148.29C102.933 146.402 102.38 143.79 102.38 140.454ZM114.049 140.454C114.049 138.909 113.944 137.603 113.734 136.535C113.543 135.468 113.143 134.6 112.533 133.933C111.923 133.246 111.017 132.903 109.816 132.903C108.615 132.903 107.709 133.246 107.099 133.933C106.489 134.6 106.079 135.468 105.869 136.535C105.678 137.603 105.583 138.909 105.583 140.454C105.583 142.055 105.678 143.399 105.869 144.486C106.06 145.573 106.46 146.45 107.07 147.117C107.7 147.785 108.615 148.118 109.816 148.118C111.017 148.118 111.923 147.785 112.533 147.117C113.162 146.45 113.572 145.573 113.763 144.486C113.953 143.399 114.049 142.055 114.049 140.454ZM123.018 151.35C122.427 151.35 121.932 151.15 121.531 150.75C121.131 150.349 120.931 149.853 120.931 149.262C120.931 148.671 121.131 148.176 121.531 147.775C121.932 147.375 122.427 147.175 123.018 147.175C123.59 147.175 124.077 147.375 124.477 147.775C124.877 148.176 125.078 148.671 125.078 149.262C125.078 149.853 124.877 150.349 124.477 150.75C124.077 151.15 123.59 151.35 123.018 151.35ZM128.744 140.454C128.744 137.155 129.297 134.581 130.403 132.732C131.528 130.863 133.454 129.929 136.18 129.929C138.907 129.929 140.823 130.863 141.929 132.732C143.054 134.581 143.616 137.155 143.616 140.454C143.616 143.79 143.054 146.402 141.929 148.29C140.823 150.158 138.907 151.093 136.18 151.093C133.454 151.093 131.528 150.158 130.403 148.29C129.297 146.402 128.744 143.79 128.744 140.454ZM140.413 140.454C140.413 138.909 140.308 137.603 140.099 136.535C139.908 135.468 139.508 134.6 138.897 133.933C138.287 133.246 137.382 132.903 136.18 132.903C134.979 132.903 134.074 133.246 133.463 133.933C132.853 134.6 132.443 135.468 132.234 136.535C132.043 137.603 131.948 138.909 131.948 140.454C131.948 142.055 132.043 143.399 132.234 144.486C132.424 145.573 132.825 146.45 133.435 147.117C134.064 147.785 134.979 148.118 136.18 148.118C137.382 148.118 138.287 147.785 138.897 147.117C139.527 146.45 139.937 145.573 140.127 144.486C140.318 143.399 140.413 142.055 140.413 140.454ZM147.638 140.454C147.638 137.155 148.191 134.581 149.297 132.732C150.422 130.863 152.348 129.929 155.074 129.929C157.801 129.929 159.717 130.863 160.823 132.732C161.948 134.581 162.51 137.155 162.51 140.454C162.51 143.79 161.948 146.402 160.823 148.29C159.717 150.158 157.801 151.093 155.074 151.093C152.348 151.093 150.422 150.158 149.297 148.29C148.191 146.402 147.638 143.79 147.638 140.454ZM159.307 140.454C159.307 138.909 159.202 137.603 158.992 136.535C158.802 135.468 158.401 134.6 157.791 133.933C157.181 133.246 156.275 132.903 155.074 132.903C153.873 132.903 152.967 133.246 152.357 133.933C151.747 134.6 151.337 135.468 151.127 136.535C150.937 137.603 150.841 138.909 150.841 140.454C150.841 142.055 150.937 143.399 151.127 144.486C151.318 145.573 151.719 146.45 152.329 147.117C152.958 147.785 153.873 148.118 155.074 148.118C156.275 148.118 157.181 147.785 157.791 147.117C158.42 146.45 158.83 145.573 159.021 144.486C159.212 143.399 159.307 142.055 159.307 140.454Z" fill="#D2DDE5"/>
<path d="M104.138 176.291C103.491 175.671 102.993 174.882 102.643 173.925C102.3 172.968 102.128 171.942 102.128 170.846C102.128 169.724 102.313 168.665 102.682 167.668C103.059 166.672 103.61 165.85 104.336 165.203H105.504V165.312C104.745 166.012 104.174 166.85 103.791 167.827C103.408 168.804 103.217 169.81 103.217 170.846C103.217 171.843 103.395 172.807 103.752 173.737C104.108 174.668 104.626 175.483 105.306 176.182V176.291H104.138ZM112.03 171.351H110.03V173.401H108.981V171.351H106.981V170.401H108.981V168.352H110.03V170.401H112.03V171.351ZM113.811 169.015C113.85 168.401 114.084 167.923 114.513 167.579C114.949 167.236 115.503 167.065 116.177 167.065C116.639 167.065 117.038 167.147 117.375 167.312C117.711 167.477 117.965 167.701 118.137 167.985C118.308 168.269 118.394 168.589 118.394 168.946C118.394 169.355 118.285 169.705 118.068 169.995C117.85 170.285 117.589 170.48 117.285 170.579V170.619C117.675 170.737 117.978 170.955 118.196 171.272C118.414 171.582 118.523 171.982 118.523 172.47C118.523 172.859 118.434 173.206 118.256 173.509C118.077 173.813 117.813 174.054 117.464 174.232C117.114 174.404 116.695 174.49 116.206 174.49C115.494 174.49 114.906 174.308 114.444 173.945C113.989 173.575 113.745 173.047 113.712 172.361H114.801C114.827 172.711 114.962 172.998 115.206 173.222C115.451 173.44 115.781 173.549 116.196 173.549C116.599 173.549 116.909 173.44 117.127 173.222C117.345 172.998 117.454 172.711 117.454 172.361C117.454 171.899 117.305 171.572 117.008 171.381C116.718 171.183 116.269 171.084 115.662 171.084H115.404V170.153H115.672C116.206 170.147 116.612 170.058 116.889 169.886C117.173 169.714 117.315 169.444 117.315 169.074C117.315 168.757 117.213 168.507 117.008 168.322C116.804 168.13 116.513 168.035 116.137 168.035C115.767 168.035 115.48 168.13 115.276 168.322C115.071 168.507 114.949 168.738 114.909 169.015H113.811ZM120.51 174.519C120.306 174.519 120.134 174.45 119.996 174.311C119.857 174.173 119.788 174.001 119.788 173.797C119.788 173.592 119.857 173.42 119.996 173.282C120.134 173.143 120.306 173.074 120.51 173.074C120.708 173.074 120.877 173.143 121.015 173.282C121.154 173.42 121.223 173.592 121.223 173.797C121.223 174.001 121.154 174.173 121.015 174.311C120.877 174.45 120.708 174.519 120.51 174.519ZM123.116 172.915C123.75 172.368 124.248 171.919 124.611 171.569C124.981 171.213 125.288 170.843 125.532 170.46C125.776 170.077 125.898 169.695 125.898 169.312C125.898 168.916 125.802 168.606 125.611 168.381C125.426 168.157 125.132 168.045 124.73 168.045C124.34 168.045 124.037 168.17 123.819 168.421C123.608 168.665 123.496 168.995 123.482 169.411H122.393C122.413 168.658 122.638 168.084 123.067 167.688C123.502 167.286 124.053 167.084 124.72 167.084C125.439 167.084 126 167.282 126.403 167.678C126.812 168.074 127.017 168.602 127.017 169.262C127.017 169.738 126.895 170.196 126.65 170.638C126.413 171.074 126.126 171.467 125.789 171.817C125.459 172.16 125.037 172.559 124.522 173.014L124.076 173.41H127.215V174.351H122.403V173.529L123.116 172.915ZM133.057 168.203H129.741V170.173C129.879 169.988 130.084 169.833 130.355 169.708C130.632 169.582 130.925 169.52 131.236 169.52C131.79 169.52 132.239 169.639 132.582 169.876C132.932 170.114 133.179 170.414 133.325 170.777C133.476 171.14 133.552 171.523 133.552 171.925C133.552 172.414 133.457 172.849 133.265 173.232C133.08 173.608 132.8 173.905 132.424 174.123C132.054 174.341 131.599 174.45 131.057 174.45C130.338 174.45 129.761 174.272 129.325 173.915C128.889 173.559 128.629 173.087 128.543 172.5H129.642C129.714 172.81 129.876 173.057 130.127 173.242C130.378 173.42 130.691 173.509 131.067 173.509C131.536 173.509 131.886 173.368 132.117 173.084C132.354 172.8 132.473 172.424 132.473 171.955C132.473 171.48 132.354 171.117 132.117 170.866C131.879 170.609 131.529 170.48 131.067 170.48C130.744 170.48 130.47 170.563 130.246 170.728C130.028 170.886 129.869 171.104 129.77 171.381H128.701V167.213H133.057V168.203ZM134.747 168.975C134.747 168.493 134.885 168.117 135.163 167.847C135.446 167.569 135.809 167.431 136.252 167.431C136.694 167.431 137.054 167.569 137.331 167.847C137.615 168.117 137.756 168.493 137.756 168.975C137.756 169.457 137.615 169.837 137.331 170.114C137.054 170.391 136.694 170.53 136.252 170.53C135.809 170.53 135.446 170.391 135.163 170.114C134.885 169.837 134.747 169.457 134.747 168.975ZM140.786 167.56L136.836 174.45H135.727L139.677 167.56H140.786ZM136.252 168.114C135.836 168.114 135.628 168.401 135.628 168.975C135.628 169.556 135.836 169.846 136.252 169.846C136.45 169.846 136.601 169.777 136.707 169.639C136.819 169.493 136.875 169.272 136.875 168.975C136.875 168.401 136.667 168.114 136.252 168.114ZM138.776 173.024C138.776 172.543 138.915 172.166 139.192 171.896C139.476 171.619 139.839 171.48 140.281 171.48C140.717 171.48 141.073 171.619 141.35 171.896C141.634 172.166 141.776 172.543 141.776 173.024C141.776 173.506 141.634 173.886 141.35 174.163C141.073 174.44 140.717 174.579 140.281 174.579C139.839 174.579 139.476 174.44 139.192 174.163C138.915 173.886 138.776 173.506 138.776 173.024ZM140.271 172.163C139.855 172.163 139.647 172.45 139.647 173.024C139.647 173.599 139.855 173.886 140.271 173.886C140.687 173.886 140.895 173.599 140.895 173.024C140.895 172.45 140.687 172.163 140.271 172.163ZM142.854 176.291V176.182C143.534 175.483 144.052 174.668 144.409 173.737C144.765 172.807 144.943 171.843 144.943 170.846C144.943 169.81 144.752 168.804 144.369 167.827C143.986 166.85 143.415 166.012 142.656 165.312V165.203H143.825C144.551 165.85 145.098 166.672 145.468 167.668C145.844 168.665 146.032 169.724 146.032 170.846C146.032 171.942 145.857 172.968 145.508 173.925C145.164 174.882 144.669 175.671 144.023 176.291H142.854Z" fill="#37CAA8"/>
<path d="M76.4482 168.203H73.1317V170.173C73.2703 169.988 73.4749 169.833 73.7455 169.708C74.0227 169.582 74.3164 169.52 74.6266 169.52C75.181 169.52 75.6298 169.639 75.973 169.876C76.3228 170.114 76.5703 170.414 76.7155 170.777C76.8673 171.14 76.9432 171.523 76.9432 171.925C76.9432 172.414 76.8475 172.849 76.6561 173.232C76.4713 173.608 76.1908 173.905 75.8146 174.123C75.445 174.341 74.9896 174.45 74.4484 174.45C73.729 174.45 73.1515 174.272 72.7159 173.915C72.2803 173.559 72.0196 173.087 71.9338 172.5H73.0327C73.1053 172.81 73.267 173.057 73.5178 173.242C73.7686 173.42 74.0821 173.509 74.4583 173.509C74.9269 173.509 75.2767 173.368 75.5077 173.084C75.7453 172.8 75.8641 172.424 75.8641 171.955C75.8641 171.48 75.7453 171.117 75.5077 170.866C75.2701 170.609 74.9203 170.48 74.4583 170.48C74.1349 170.48 73.861 170.563 73.6366 170.728C73.4188 170.886 73.2604 171.104 73.1614 171.381H72.0922V167.213H76.4482V168.203ZM78.316 170.747C78.316 169.606 78.5074 168.715 78.8902 168.074C79.2796 167.428 79.9462 167.104 80.89 167.104C81.8338 167.104 82.4971 167.428 82.8799 168.074C83.2693 168.715 83.464 169.606 83.464 170.747C83.464 171.902 83.2693 172.807 82.8799 173.46C82.4971 174.107 81.8338 174.43 80.89 174.43C79.9462 174.43 79.2796 174.107 78.8902 173.46C78.5074 172.807 78.316 171.902 78.316 170.747ZM82.3552 170.747C82.3552 170.213 82.3189 169.761 82.2463 169.391C82.1803 169.021 82.0417 168.721 81.8305 168.49C81.6193 168.253 81.3058 168.134 80.89 168.134C80.4742 168.134 80.1607 168.253 79.9495 168.49C79.7383 168.721 79.5964 169.021 79.5238 169.391C79.4578 169.761 79.4248 170.213 79.4248 170.747C79.4248 171.302 79.4578 171.767 79.5238 172.143C79.5898 172.519 79.7284 172.823 79.9396 173.054C80.1574 173.285 80.4742 173.401 80.89 173.401C81.3058 173.401 81.6193 173.285 81.8305 173.054C82.0483 172.823 82.1902 172.519 82.2562 172.143C82.3222 171.767 82.3552 171.302 82.3552 170.747ZM85.4601 174.519C85.2555 174.519 85.0839 174.45 84.9453 174.311C84.8067 174.173 84.7374 174.001 84.7374 173.797C84.7374 173.592 84.8067 173.42 84.9453 173.282C85.0839 173.143 85.2555 173.074 85.4601 173.074C85.6581 173.074 85.8264 173.143 85.965 173.282C86.1036 173.42 86.1729 173.592 86.1729 173.797C86.1729 174.001 86.1036 174.173 85.965 174.311C85.8264 174.45 85.6581 174.519 85.4601 174.519ZM88.0659 172.915C88.6995 172.368 89.1978 171.919 89.5608 171.569C89.9304 171.213 90.2373 170.843 90.4815 170.46C90.7257 170.077 90.8478 169.695 90.8478 169.312C90.8478 168.916 90.7521 168.606 90.5607 168.381C90.3759 168.157 90.0822 168.045 89.6796 168.045C89.2902 168.045 88.9866 168.17 88.7688 168.421C88.5576 168.665 88.4454 168.995 88.4322 169.411H87.3432C87.363 168.658 87.5874 168.084 88.0164 167.688C88.452 167.286 89.0031 167.084 89.6697 167.084C90.3891 167.084 90.9501 167.282 91.3527 167.678C91.7619 168.074 91.9665 168.602 91.9665 169.262C91.9665 169.738 91.8444 170.196 91.6002 170.638C91.3626 171.074 91.0755 171.467 90.7389 171.817C90.4089 172.16 89.9865 172.559 89.4717 173.014L89.0262 173.41H92.1645V174.351H87.3531V173.529L88.0659 172.915ZM93.2055 168.262V167.233H95.2647V174.45H94.1262V168.262H93.2055Z" fill="#9EA7AE"/>
<mask id="mask0_1301_10736" style="mask-type:alpha" maskUnits="userSpaceOnUse" x="149" y="165" width="12" height="12">
<rect x="149.852" y="165.25" width="11" height="11" fill="#D9D9D9"/>
</mask>
<g mask="url(#mask0_1301_10736)">
<path d="M152.736 173.337L152.258 172.858L156.768 168.344H152.668V167.656H157.938V172.927H157.251V168.827L152.736 173.337Z" fill="#37CAA8"/>
</g>
<rect x="185.6" y="204.3" width="101.2" height="26.4" rx="13.2" fill="#191B1D"/>
<path d="M199.406 221H198.413L201.034 214.554H202.048L204.665 221H203.673L203.028 219.38H200.05L199.406 221ZM200.373 218.546H202.706L201.537 215.603L200.373 218.546ZM209.723 221H208.945L208.898 220.385C208.703 220.603 208.468 220.775 208.193 220.901C207.921 221.024 207.621 221.086 207.295 221.086C206.882 221.086 206.513 220.988 206.186 220.794C205.86 220.599 205.602 220.332 205.413 219.994C205.227 219.656 205.134 219.275 205.134 218.851C205.134 218.424 205.227 218.044 205.413 217.708C205.602 217.37 205.86 217.104 206.186 216.909C206.513 216.714 206.882 216.617 207.295 216.617C207.604 216.617 207.891 216.673 208.154 216.785C208.421 216.896 208.65 217.052 208.842 217.253V214.554H209.723V221ZM207.441 220.295C207.702 220.295 207.937 220.235 208.146 220.115C208.358 219.994 208.527 219.831 208.653 219.625C208.779 219.419 208.842 219.184 208.842 218.92V218.774C208.842 218.51 208.779 218.276 208.653 218.069C208.527 217.863 208.358 217.701 208.146 217.584C207.937 217.466 207.702 217.408 207.441 217.408C207.175 217.408 206.935 217.471 206.723 217.597C206.511 217.723 206.344 217.895 206.221 218.112C206.098 218.327 206.036 218.572 206.036 218.847C206.036 219.122 206.098 219.368 206.221 219.586C206.344 219.804 206.511 219.977 206.723 220.106C206.935 220.232 207.175 220.295 207.441 220.295ZM215.046 216.703L213.259 221H212.404L210.616 216.703H211.562L212.838 220.093L214.114 216.703H215.046ZM219.404 221H218.643L218.591 220.45C218.434 220.65 218.235 220.806 217.994 220.918C217.754 221.03 217.487 221.086 217.195 221.086C216.888 221.086 216.615 221.026 216.374 220.905C216.134 220.785 215.945 220.62 215.807 220.411C215.67 220.202 215.601 219.964 215.601 219.698C215.601 219.417 215.675 219.171 215.824 218.959C215.973 218.744 216.177 218.576 216.434 218.456C216.692 218.333 216.986 218.271 217.315 218.271C217.521 218.271 217.731 218.296 217.943 218.344C218.157 218.393 218.351 218.462 218.523 218.551V218.392C218.523 218.182 218.468 218.003 218.359 217.854C218.253 217.703 218.107 217.587 217.921 217.506C217.738 217.426 217.534 217.386 217.311 217.386C217.113 217.386 216.911 217.42 216.705 217.489C216.502 217.558 216.31 217.664 216.129 217.807L215.863 217.09C216.124 216.935 216.394 216.817 216.675 216.737C216.959 216.657 217.236 216.617 217.509 216.617C217.898 216.617 218.233 216.694 218.514 216.849C218.798 217.004 219.017 217.224 219.171 217.511C219.326 217.794 219.404 218.129 219.404 218.516V221ZM217.367 220.338C217.57 220.338 217.758 220.297 217.93 220.213C218.102 220.127 218.24 220.007 218.346 219.852C218.455 219.695 218.514 219.512 218.523 219.302V219.242C218.377 219.133 218.212 219.049 218.029 218.989C217.848 218.926 217.663 218.894 217.474 218.894C217.185 218.894 216.944 218.963 216.752 219.101C216.56 219.238 216.464 219.414 216.464 219.629C216.464 219.764 216.503 219.885 216.58 219.994C216.661 220.1 216.768 220.185 216.903 220.248C217.04 220.308 217.195 220.338 217.367 220.338ZM224.671 221H223.791V218.667C223.791 218.286 223.686 217.982 223.477 217.756C223.271 217.529 222.993 217.416 222.643 217.416C222.282 217.416 221.992 217.536 221.771 217.777C221.551 218.018 221.44 218.337 221.44 218.735V221H220.559V216.703H221.303L221.333 217.395C221.49 217.143 221.697 216.951 221.952 216.819C222.207 216.684 222.506 216.617 222.85 216.617C223.414 216.617 223.858 216.787 224.182 217.128C224.508 217.469 224.671 217.939 224.671 218.538V221ZM229.475 220.36C229.266 220.592 229.016 220.771 228.723 220.897C228.431 221.023 228.115 221.086 227.774 221.086C227.344 221.086 226.957 220.988 226.614 220.794C226.273 220.599 226.004 220.332 225.806 219.994C225.608 219.656 225.509 219.275 225.509 218.851C225.509 218.424 225.608 218.044 225.806 217.708C226.004 217.37 226.273 217.104 226.614 216.909C226.957 216.714 227.344 216.617 227.774 216.617C228.112 216.617 228.427 216.68 228.719 216.806C229.011 216.929 229.262 217.107 229.471 217.339L228.951 217.885C228.811 217.736 228.642 217.621 228.444 217.541C228.249 217.458 228.042 217.416 227.821 217.416C227.549 217.416 227.307 217.478 227.095 217.601C226.883 217.724 226.717 217.893 226.596 218.108C226.476 218.32 226.416 218.566 226.416 218.847C226.416 219.125 226.476 219.373 226.596 219.59C226.717 219.808 226.883 219.979 227.095 220.102C227.307 220.225 227.549 220.286 227.821 220.286C228.042 220.286 228.251 220.245 228.448 220.162C228.646 220.079 228.814 219.964 228.951 219.818L229.475 220.36ZM234.223 220.488C233.691 220.887 233.105 221.086 232.466 221.086C232.011 221.086 231.602 220.985 231.241 220.785C230.88 220.584 230.595 220.311 230.386 219.964C230.177 219.618 230.073 219.227 230.073 218.791C230.073 218.376 230.169 218.005 230.361 217.678C230.552 217.349 230.815 217.09 231.147 216.901C231.479 216.711 231.856 216.617 232.277 216.617C232.712 216.617 233.095 216.72 233.424 216.926C233.757 217.133 234.014 217.42 234.198 217.79C234.384 218.157 234.477 218.582 234.477 219.066V219.204H231.027C231.078 219.427 231.176 219.623 231.319 219.792C231.462 219.958 231.64 220.089 231.852 220.183C232.064 220.275 232.303 220.321 232.569 220.321C233.045 220.321 233.482 220.166 233.88 219.857L234.223 220.488ZM230.988 218.594H233.656C233.628 218.353 233.553 218.144 233.433 217.966C233.313 217.786 233.156 217.645 232.964 217.545C232.775 217.442 232.562 217.39 232.324 217.39C232.084 217.39 231.867 217.442 231.675 217.545C231.483 217.645 231.327 217.786 231.207 217.966C231.09 218.147 231.017 218.356 230.988 218.594ZM242.993 220.179C242.695 220.477 242.34 220.71 241.928 220.879C241.518 221.046 241.071 221.129 240.587 221.129C240.103 221.129 239.656 221.046 239.246 220.879C238.837 220.713 238.48 220.48 238.177 220.179C237.876 219.875 237.641 219.52 237.472 219.113C237.306 218.704 237.223 218.258 237.223 217.777C237.223 217.293 237.306 216.848 237.472 216.441C237.641 216.031 237.876 215.676 238.177 215.375C238.48 215.074 238.837 214.841 239.246 214.675C239.656 214.509 240.103 214.426 240.587 214.426C241.068 214.426 241.514 214.51 241.923 214.679C242.336 214.845 242.69 215.076 242.985 215.371L242.327 216.041C242.113 215.798 241.855 215.607 241.554 215.47C241.256 215.329 240.929 215.259 240.574 215.259C240.23 215.259 239.914 215.322 239.625 215.448C239.335 215.571 239.083 215.748 238.868 215.977C238.654 216.203 238.486 216.469 238.366 216.776C238.248 217.082 238.189 217.416 238.189 217.777C238.189 218.138 238.248 218.472 238.366 218.778C238.486 219.085 238.654 219.353 238.868 219.582C239.083 219.808 239.335 219.984 239.625 220.11C239.914 220.233 240.23 220.295 240.574 220.295C240.929 220.295 241.256 220.226 241.554 220.089C241.855 219.948 242.111 219.757 242.323 219.513L242.993 220.179ZM244.029 221V214.554H244.91V217.3C245.228 216.845 245.71 216.617 246.358 216.617C246.916 216.617 247.353 216.786 247.668 217.124C247.983 217.462 248.141 217.933 248.141 218.538V221H247.26V218.752C247.26 218.326 247.157 217.995 246.951 217.76C246.747 217.525 246.462 217.408 246.096 217.408C245.726 217.408 245.435 217.528 245.223 217.769C245.014 218.006 244.91 218.334 244.91 218.752V221H244.029ZM252.885 221H252.124L252.073 220.45C251.915 220.65 251.716 220.806 251.475 220.918C251.235 221.03 250.968 221.086 250.676 221.086C250.37 221.086 250.096 221.026 249.855 220.905C249.615 220.785 249.426 220.62 249.288 220.411C249.151 220.202 249.082 219.964 249.082 219.698C249.082 219.417 249.157 219.171 249.305 218.959C249.454 218.744 249.658 218.576 249.916 218.456C250.173 218.333 250.467 218.271 250.796 218.271C251.003 218.271 251.212 218.296 251.424 218.344C251.639 218.393 251.832 218.462 252.004 218.551V218.392C252.004 218.182 251.949 218.003 251.841 217.854C251.735 217.703 251.589 217.587 251.402 217.506C251.219 217.426 251.016 217.386 250.792 217.386C250.595 217.386 250.393 217.42 250.186 217.489C249.983 217.558 249.791 217.664 249.611 217.807L249.344 217.09C249.605 216.935 249.876 216.817 250.156 216.737C250.44 216.657 250.718 216.617 250.99 216.617C251.379 216.617 251.715 216.694 251.995 216.849C252.279 217.004 252.498 217.224 252.653 217.511C252.807 217.794 252.885 218.129 252.885 218.516V221ZM250.848 220.338C251.051 220.338 251.239 220.297 251.411 220.213C251.583 220.127 251.722 220.007 251.828 219.852C251.937 219.695 251.995 219.512 252.004 219.302V219.242C251.858 219.133 251.693 219.049 251.51 218.989C251.329 218.926 251.145 218.894 250.955 218.894C250.666 218.894 250.426 218.963 250.234 219.101C250.042 219.238 249.946 219.414 249.946 219.629C249.946 219.764 249.984 219.885 250.062 219.994C250.142 220.1 250.249 220.185 250.384 220.248C250.521 220.308 250.676 220.338 250.848 220.338ZM254.921 221H254.041V216.703H254.81L254.844 217.519C254.993 217.236 255.198 217.015 255.459 216.858C255.722 216.697 256.024 216.617 256.365 216.617C256.448 216.617 256.531 216.623 256.614 216.634C256.7 216.643 256.786 216.657 256.872 216.677L256.761 217.472C256.594 217.429 256.431 217.408 256.271 217.408C256.004 217.408 255.769 217.472 255.566 217.601C255.363 217.727 255.204 217.902 255.089 218.125C254.977 218.349 254.921 218.606 254.921 218.899V221ZM260.211 220.892C259.91 221.021 259.619 221.086 259.339 221.086C259.058 221.086 258.812 221.026 258.6 220.905C258.39 220.785 258.226 220.616 258.105 220.398C257.988 220.178 257.929 219.924 257.929 219.638V217.489H257.177V216.703H257.972V215.629H258.81V216.703H260.065V217.489H258.81V219.474C258.81 219.726 258.877 219.927 259.012 220.076C259.15 220.222 259.326 220.295 259.541 220.295C259.721 220.295 259.9 220.241 260.078 220.132L260.211 220.892Z" fill="#808080"/>
<mask id="mask1_1301_10736" style="mask-type:alpha" maskUnits="userSpaceOnUse" x="263" y="211" width="12" height="12">
<rect x="263.15" y="212" width="11" height="11" fill="#D9D9D9"/>
</mask>
<g mask="url(#mask1_1301_10736)">
<path d="M270.769 217.843H265.211V217.156H270.769L268.158 214.545L268.648 214.062L272.086 217.5L268.648 220.937L268.158 220.454L270.769 217.843Z" fill="#7F7F7F"/>
</g>
<rect width="18.7" height="11.22" rx="5.61" transform="matrix(-1 0 0 1 89.9004 212)" fill="#191B1D"/>
<circle cx="3.74" cy="3.74" r="3.74" transform="matrix(-1 0 0 1 81.1738 213.87)" fill="#B3B3B3"/>
<path d="M100.609 221.11H99.5688L95.8648 216.134V221.11H94.9195V214.665H95.9594L99.6633 219.645V214.665H100.609V221.11ZM103.797 221.196C103.367 221.196 102.98 221.099 102.637 220.904C102.293 220.709 102.022 220.444 101.825 220.109C101.627 219.771 101.528 219.388 101.528 218.962C101.528 218.538 101.627 218.158 101.825 217.823C102.022 217.485 102.293 217.219 102.637 217.024C102.98 216.826 103.367 216.727 103.797 216.727C104.229 216.727 104.616 216.826 104.957 217.024C105.298 217.219 105.566 217.485 105.761 217.823C105.958 218.158 106.057 218.538 106.057 218.962C106.057 219.388 105.958 219.771 105.761 220.109C105.566 220.444 105.298 220.709 104.957 220.904C104.616 221.099 104.229 221.196 103.797 221.196ZM103.793 220.405C104.053 220.405 104.285 220.342 104.489 220.216C104.695 220.087 104.857 219.916 104.974 219.701C105.095 219.483 105.155 219.235 105.155 218.957C105.155 218.685 105.095 218.442 104.974 218.227C104.857 218.009 104.695 217.837 104.489 217.711C104.285 217.582 104.053 217.518 103.793 217.518C103.535 217.518 103.303 217.582 103.096 217.711C102.89 217.837 102.727 218.009 102.607 218.227C102.489 218.442 102.43 218.685 102.43 218.957C102.43 219.235 102.489 219.483 102.607 219.701C102.727 219.916 102.89 220.087 103.096 220.216C103.303 220.342 103.535 220.405 103.793 220.405ZM109.598 221.003C109.297 221.132 109.006 221.196 108.725 221.196C108.445 221.196 108.198 221.136 107.986 221.016C107.777 220.895 107.613 220.726 107.492 220.509C107.375 220.288 107.316 220.034 107.316 219.748V217.6H106.564V216.813H107.359V215.739H108.197V216.813H109.452V217.6H108.197V219.585C108.197 219.837 108.264 220.037 108.399 220.186C108.536 220.332 108.713 220.405 108.927 220.405C109.108 220.405 109.287 220.351 109.464 220.242L109.598 221.003ZM110.792 215.567C110.658 215.567 110.544 215.52 110.453 215.425C110.361 215.331 110.315 215.216 110.315 215.082C110.315 214.947 110.361 214.834 110.453 214.742C110.544 214.648 110.658 214.6 110.792 214.6C110.93 214.6 111.044 214.648 111.136 214.742C111.23 214.834 111.278 214.947 111.278 215.082C111.278 215.216 111.23 215.331 111.136 215.425C111.044 215.52 110.93 215.567 110.792 215.567ZM111.23 221.11H110.35V216.813H111.23V221.11ZM113.697 221.11H112.816V217.6H112.064V216.813H112.816V215.975C112.816 215.695 112.878 215.447 113.001 215.232C113.127 215.014 113.299 214.844 113.516 214.721C113.737 214.597 113.99 214.536 114.277 214.536C114.455 214.536 114.634 214.56 114.814 214.609C114.995 214.658 115.172 214.734 115.347 214.837L115.012 215.528C114.917 215.46 114.818 215.41 114.715 215.378C114.615 215.344 114.515 215.327 114.414 215.327C114.205 215.327 114.033 215.401 113.899 215.55C113.764 215.699 113.697 215.898 113.697 216.147V216.813H115.012V217.6H113.697V221.11ZM116.318 215.567C116.183 215.567 116.07 215.52 115.979 215.425C115.887 215.331 115.841 215.216 115.841 215.082C115.841 214.947 115.887 214.834 115.979 214.742C116.07 214.648 116.183 214.6 116.318 214.6C116.455 214.6 116.57 214.648 116.662 214.742C116.756 214.834 116.804 214.947 116.804 215.082C116.804 215.216 116.756 215.331 116.662 215.425C116.57 215.52 116.455 215.567 116.318 215.567ZM116.756 221.11H115.875V216.813H116.756V221.11ZM121.659 220.47C121.45 220.702 121.199 220.881 120.907 221.007C120.615 221.133 120.298 221.196 119.957 221.196C119.528 221.196 119.141 221.099 118.797 220.904C118.456 220.709 118.187 220.443 117.989 220.105C117.792 219.767 117.693 219.386 117.693 218.962C117.693 218.535 117.792 218.154 117.989 217.819C118.187 217.481 118.456 217.214 118.797 217.019C119.141 216.825 119.528 216.727 119.957 216.727C120.295 216.727 120.611 216.79 120.903 216.916C121.195 217.04 121.446 217.217 121.655 217.449L121.135 217.995C120.994 217.846 120.825 217.731 120.628 217.651C120.433 217.568 120.225 217.527 120.005 217.527C119.733 217.527 119.49 217.588 119.279 217.711C119.067 217.834 118.9 218.003 118.78 218.218C118.66 218.43 118.6 218.677 118.6 218.957C118.6 219.235 118.66 219.483 118.78 219.701C118.9 219.918 119.067 220.089 119.279 220.212C119.49 220.335 119.733 220.397 120.005 220.397C120.225 220.397 120.434 220.355 120.632 220.272C120.83 220.189 120.997 220.075 121.135 219.928L121.659 220.47ZM126.162 221.11H125.402L125.35 220.56C125.192 220.761 124.993 220.917 124.753 221.028C124.512 221.14 124.246 221.196 123.954 221.196C123.647 221.196 123.373 221.136 123.133 221.016C122.892 220.895 122.703 220.731 122.566 220.521C122.428 220.312 122.359 220.075 122.359 219.808C122.359 219.527 122.434 219.281 122.583 219.069C122.732 218.854 122.935 218.687 123.193 218.566C123.451 218.443 123.744 218.382 124.074 218.382C124.28 218.382 124.489 218.406 124.701 218.455C124.916 218.503 125.109 218.572 125.281 218.661V218.502C125.281 218.293 125.227 218.114 125.118 217.965C125.012 217.813 124.866 217.697 124.68 217.617C124.496 217.537 124.293 217.496 124.07 217.496C123.872 217.496 123.67 217.531 123.464 217.6C123.26 217.668 123.068 217.774 122.888 217.918L122.621 217.2C122.882 217.045 123.153 216.928 123.434 216.848C123.717 216.767 123.995 216.727 124.267 216.727C124.657 216.727 124.992 216.805 125.273 216.959C125.556 217.114 125.775 217.335 125.93 217.621C126.085 217.905 126.162 218.24 126.162 218.627V221.11ZM124.125 220.448C124.329 220.448 124.516 220.407 124.688 220.324C124.86 220.238 124.999 220.118 125.105 219.963C125.214 219.805 125.273 219.622 125.281 219.413V219.353C125.135 219.244 124.97 219.159 124.787 219.099C124.607 219.036 124.422 219.005 124.233 219.005C123.943 219.005 123.703 219.073 123.511 219.211C123.319 219.348 123.223 219.525 123.223 219.739C123.223 219.874 123.262 219.996 123.339 220.105C123.419 220.211 123.527 220.295 123.661 220.358C123.799 220.418 123.954 220.448 124.125 220.448ZM129.853 221.003C129.552 221.132 129.262 221.196 128.981 221.196C128.7 221.196 128.454 221.136 128.242 221.016C128.033 220.895 127.868 220.726 127.748 220.509C127.63 220.288 127.571 220.034 127.571 219.748V217.6H126.82V216.813H127.614V215.739H128.452V216.813H129.707V217.6H128.452V219.585C128.452 219.837 128.52 220.037 128.654 220.186C128.792 220.332 128.968 220.405 129.183 220.405C129.363 220.405 129.542 220.351 129.72 220.242L129.853 221.003ZM131.048 215.567C130.913 215.567 130.8 215.52 130.708 215.425C130.617 215.331 130.571 215.216 130.571 215.082C130.571 214.947 130.617 214.834 130.708 214.742C130.8 214.648 130.913 214.6 131.048 214.6C131.185 214.6 131.3 214.648 131.391 214.742C131.486 214.834 131.533 214.947 131.533 215.082C131.533 215.216 131.486 215.331 131.391 215.425C131.3 215.52 131.185 215.567 131.048 215.567ZM131.486 221.11H130.605V216.813H131.486V221.11ZM134.691 221.196C134.262 221.196 133.875 221.099 133.531 220.904C133.188 220.709 132.917 220.444 132.719 220.109C132.521 219.771 132.423 219.388 132.423 218.962C132.423 218.538 132.521 218.158 132.719 217.823C132.917 217.485 133.188 217.219 133.531 217.024C133.875 216.826 134.262 216.727 134.691 216.727C135.124 216.727 135.511 216.826 135.852 217.024C136.192 217.219 136.46 217.485 136.655 217.823C136.853 218.158 136.952 218.538 136.952 218.962C136.952 219.388 136.853 219.771 136.655 220.109C136.46 220.444 136.192 220.709 135.852 220.904C135.511 221.099 135.124 221.196 134.691 221.196ZM134.687 220.405C134.948 220.405 135.18 220.342 135.383 220.216C135.589 220.087 135.751 219.916 135.869 219.701C135.989 219.483 136.049 219.235 136.049 218.957C136.049 218.685 135.989 218.442 135.869 218.227C135.751 218.009 135.589 217.837 135.383 217.711C135.18 217.582 134.948 217.518 134.687 217.518C134.429 217.518 134.197 217.582 133.991 217.711C133.785 217.837 133.621 218.009 133.501 218.227C133.384 218.442 133.325 218.685 133.325 218.957C133.325 219.235 133.384 219.483 133.501 219.701C133.621 219.916 133.785 220.087 133.991 220.216C134.197 220.342 134.429 220.405 134.687 220.405ZM141.983 221.11H141.102V218.777C141.102 218.396 140.998 218.092 140.789 217.866C140.582 217.64 140.305 217.527 139.955 217.527C139.594 217.527 139.303 217.647 139.083 217.887C138.862 218.128 138.752 218.447 138.752 218.846V221.11H137.871V216.813H138.614L138.645 217.505C138.802 217.253 139.008 217.061 139.263 216.929C139.518 216.795 139.818 216.727 140.161 216.727C140.726 216.727 141.17 216.898 141.493 217.239C141.82 217.58 141.983 218.049 141.983 218.648V221.11ZM142.838 220.736L143.053 219.946C143.151 220.043 143.267 220.129 143.401 220.203C143.539 220.278 143.683 220.337 143.835 220.38C143.99 220.42 144.142 220.44 144.291 220.44C144.526 220.44 144.715 220.39 144.858 220.289C145.001 220.189 145.073 220.056 145.073 219.89C145.073 219.767 145.033 219.665 144.952 219.585C144.875 219.502 144.77 219.43 144.639 219.37C144.51 219.31 144.371 219.251 144.222 219.194C144.03 219.122 143.838 219.039 143.646 218.944C143.457 218.85 143.298 218.724 143.169 218.566C143.04 218.409 142.976 218.201 142.976 217.943C142.976 217.697 143.039 217.484 143.165 217.303C143.291 217.12 143.467 216.978 143.693 216.878C143.92 216.777 144.18 216.727 144.475 216.727C144.934 216.727 145.388 216.842 145.838 217.071L145.58 217.823C145.488 217.757 145.379 217.698 145.253 217.647C145.127 217.595 144.998 217.555 144.866 217.527C144.735 217.495 144.613 217.479 144.501 217.479C144.315 217.479 144.165 217.521 144.05 217.604C143.938 217.687 143.882 217.799 143.882 217.939C143.882 218.025 143.91 218.104 143.964 218.175C144.018 218.244 144.104 218.313 144.222 218.382C144.342 218.447 144.504 218.522 144.707 218.605C144.902 218.682 145.097 218.771 145.292 218.871C145.487 218.972 145.648 219.102 145.777 219.262C145.909 219.423 145.975 219.633 145.975 219.894C145.975 220.152 145.906 220.38 145.769 220.577C145.631 220.772 145.439 220.924 145.193 221.033C144.949 221.142 144.666 221.196 144.342 221.196C143.807 221.196 143.305 221.043 142.838 220.736Z" fill="#B3B3B3"/>
<line x1="71.1992" y1="192.888" x2="286.799" y2="192.888" stroke="#2D3133" stroke-width="0.825"/>
<defs>
<filter id="filter0_f_1301_10736" x="0.900002" y="0.900002" width="356.2" height="297.9" filterUnits="userSpaceOnUse" color-interpolation-filters="sRGB">
<feFlood flood-opacity="0" result="BackgroundImageFix"/>
<feBlend mode="normal" in="SourceGraphic" in2="BackgroundImageFix" result="shape"/>
<feGaussianBlur stdDeviation="28.55" result="effect1_foregroundBlur_1301_10736"/>
</filter>
<linearGradient id="paint0_linear_1301_10736" x1="31.8697" y1="30.6825" x2="314.99" y2="350.528" gradientUnits="userSpaceOnUse">
<stop stop-color="#FF1CF7"/>
<stop offset="1" stop-color="#00F0FF"/>
</linearGradient>
<linearGradient id="paint1_linear_1301_10736" x1="31.8697" y1="30.6825" x2="314.99" y2="350.528" gradientUnits="userSpaceOnUse">
<stop stop-color="#FF1CF7"/>
<stop offset="1" stop-color="#00F0FF"/>
</linearGradient>
</defs>
</svg>
