<svg width="17" height="17" viewBox="0 0 17 17" fill="none" xmlns="http://www.w3.org/2000/svg">
<g clip-path="url(#clip0_1301_19680)">
<path d="M15.0239 11.1407C14.5732 12.1956 13.8684 13.1251 12.971 13.848C12.0736 14.5709 11.011 15.0652 9.87602 15.2877C8.74103 15.5102 7.56826 15.4541 6.46023 15.1244C5.3522 14.7946 4.34265 14.2012 3.51985 13.396C2.69704 12.5908 2.08603 11.5984 1.74024 10.5055C1.39445 9.41258 1.3244 8.25247 1.53621 7.12658C1.74803 6.00069 2.23527 4.94329 2.95532 4.04684C3.67538 3.15039 4.60633 2.44218 5.66679 1.98413" stroke="#A7A8AB" stroke-width="1.5" stroke-linecap="round" stroke-linejoin="round"/>
<path d="M15.5833 8.41353C15.5833 7.49281 15.4001 6.5811 15.0441 5.73047C14.6882 4.87983 14.1664 4.10692 13.5087 3.45587C12.8509 2.80482 12.0701 2.28838 11.2107 1.93604C10.3513 1.58369 9.4302 1.40234 8.5 1.40234V8.41353H15.5833Z" stroke="#A7A8AB" stroke-width="1.5" stroke-linecap="round" stroke-linejoin="round"/>
</g>
<defs>
<clipPath id="clip0_1301_19680">
<rect width="17" height="16.8268" fill="white"/>
</clipPath>
</defs>
</svg>
