<svg width="144" height="28" viewBox="0 0 144 28" fill="none" xmlns="http://www.w3.org/2000/svg">
<path d="M16.784 21.888H6.308L4.508 27H0.224L9.188 1.944H13.94L22.904 27H18.584L16.784 21.888ZM15.632 18.54L11.564 6.912L7.46 18.54H15.632ZM25.4336 17.064C25.4336 15.024 25.8416 13.236 26.6576 11.7C27.4976 10.14 28.6496 8.94 30.1136 8.1C31.5776 7.26 33.2576 6.84 35.1536 6.84C37.5536 6.84 39.5336 7.416 41.0936 8.568C42.6776 9.696 43.7456 11.316 44.2976 13.428H39.8696C39.5096 12.444 38.9336 11.676 38.1416 11.124C37.3496 10.572 36.3536 10.296 35.1536 10.296C33.4736 10.296 32.1296 10.896 31.1216 12.096C30.1376 13.272 29.6456 14.928 29.6456 17.064C29.6456 19.2 30.1376 20.868 31.1216 22.068C32.1296 23.268 33.4736 23.868 35.1536 23.868C37.5296 23.868 39.1016 22.824 39.8696 20.736H44.2976C43.7216 22.752 42.6416 24.36 41.0576 25.56C39.4736 26.736 37.5056 27.324 35.1536 27.324C33.2576 27.324 31.5776 26.904 30.1136 26.064C28.6496 25.2 27.4976 24 26.6576 22.464C25.8416 20.904 25.4336 19.104 25.4336 17.064ZM47.0195 17.064C47.0195 15.024 47.4275 13.236 48.2435 11.7C49.0835 10.14 50.2355 8.94 51.6995 8.1C53.1635 7.26 54.8435 6.84 56.7395 6.84C59.1395 6.84 61.1195 7.416 62.6795 8.568C64.2635 9.696 65.3315 11.316 65.8835 13.428H61.4555C61.0955 12.444 60.5195 11.676 59.7275 11.124C58.9355 10.572 57.9395 10.296 56.7395 10.296C55.0595 10.296 53.7155 10.896 52.7075 12.096C51.7235 13.272 51.2315 14.928 51.2315 17.064C51.2315 19.2 51.7235 20.868 52.7075 22.068C53.7155 23.268 55.0595 23.868 56.7395 23.868C59.1155 23.868 60.6875 22.824 61.4555 20.736H65.8835C65.3075 22.752 64.2275 24.36 62.6435 25.56C61.0595 26.736 59.0915 27.324 56.7395 27.324C54.8435 27.324 53.1635 26.904 51.6995 26.064C50.2355 25.2 49.0835 24 48.2435 22.464C47.4275 20.904 47.0195 19.104 47.0195 17.064ZM88.1534 16.596C88.1534 17.34 88.1054 18.012 88.0094 18.612H72.8534C72.9734 20.196 73.5614 21.468 74.6174 22.428C75.6734 23.388 76.9694 23.868 78.5054 23.868C80.7134 23.868 82.2734 22.944 83.1854 21.096H87.6134C87.0134 22.92 85.9214 24.42 84.3374 25.596C82.7774 26.748 80.8334 27.324 78.5054 27.324C76.6094 27.324 74.9054 26.904 73.3934 26.064C71.9054 25.2 70.7294 24 69.8654 22.464C69.0254 20.904 68.6054 19.104 68.6054 17.064C68.6054 15.024 69.0134 13.236 69.8294 11.7C70.6694 10.14 71.8334 8.94 73.3214 8.1C74.8334 7.26 76.5614 6.84 78.5054 6.84C80.3774 6.84 82.0454 7.248 83.5094 8.064C84.9734 8.88 86.1134 10.032 86.9294 11.52C87.7454 12.984 88.1534 14.676 88.1534 16.596ZM83.8694 15.3C83.8454 13.788 83.3054 12.576 82.2494 11.664C81.1934 10.752 79.8854 10.296 78.3254 10.296C76.9094 10.296 75.6974 10.752 74.6894 11.664C73.6814 12.552 73.0814 13.764 72.8894 15.3H83.8694ZM96.2962 0.36V27H92.1922V0.36H96.2962ZM111.692 6.84C113.252 6.84 114.644 7.164 115.868 7.812C117.116 8.46 118.088 9.42 118.784 10.692C119.48 11.964 119.828 13.5 119.828 15.3V27H115.76V15.912C115.76 14.136 115.316 12.78 114.428 11.844C113.54 10.884 112.328 10.404 110.792 10.404C109.256 10.404 108.032 10.884 107.12 11.844C106.232 12.78 105.788 14.136 105.788 15.912V27H101.684V7.164H105.788V9.432C106.46 8.616 107.312 7.98 108.344 7.524C109.4 7.068 110.516 6.84 111.692 6.84ZM133.667 27.324C131.795 27.324 130.103 26.904 128.591 26.064C127.079 25.2 125.891 24 125.027 22.464C124.163 20.904 123.731 19.104 123.731 17.064C123.731 15.048 124.175 13.26 125.063 11.7C125.951 10.14 127.163 8.94 128.699 8.1C130.235 7.26 131.951 6.84 133.847 6.84C135.743 6.84 137.459 7.26 138.995 8.1C140.531 8.94 141.743 10.14 142.631 11.7C143.519 13.26 143.963 15.048 143.963 17.064C143.963 19.08 143.507 20.868 142.595 22.428C141.683 23.988 140.435 25.2 138.851 26.064C137.291 26.904 135.563 27.324 133.667 27.324ZM133.667 23.76C134.723 23.76 135.707 23.508 136.619 23.004C137.555 22.5 138.311 21.744 138.887 20.736C139.463 19.728 139.751 18.504 139.751 17.064C139.751 15.624 139.475 14.412 138.923 13.428C138.371 12.42 137.639 11.664 136.727 11.16C135.815 10.656 134.831 10.404 133.775 10.404C132.719 10.404 131.735 10.656 130.823 11.16C129.935 11.664 129.227 12.42 128.699 13.428C128.171 14.412 127.907 15.624 127.907 17.064C127.907 19.2 128.447 20.856 129.527 22.032C130.631 23.184 132.011 23.76 133.667 23.76Z" fill="url(#paint0_linear_1300_15254)"/>
<path d="M16.784 21.888H6.308L4.508 27H0.224L9.188 1.944H13.94L22.904 27H18.584L16.784 21.888ZM15.632 18.54L11.564 6.912L7.46 18.54H15.632ZM25.4336 17.064C25.4336 15.024 25.8416 13.236 26.6576 11.7C27.4976 10.14 28.6496 8.94 30.1136 8.1C31.5776 7.26 33.2576 6.84 35.1536 6.84C37.5536 6.84 39.5336 7.416 41.0936 8.568C42.6776 9.696 43.7456 11.316 44.2976 13.428H39.8696C39.5096 12.444 38.9336 11.676 38.1416 11.124C37.3496 10.572 36.3536 10.296 35.1536 10.296C33.4736 10.296 32.1296 10.896 31.1216 12.096C30.1376 13.272 29.6456 14.928 29.6456 17.064C29.6456 19.2 30.1376 20.868 31.1216 22.068C32.1296 23.268 33.4736 23.868 35.1536 23.868C37.5296 23.868 39.1016 22.824 39.8696 20.736H44.2976C43.7216 22.752 42.6416 24.36 41.0576 25.56C39.4736 26.736 37.5056 27.324 35.1536 27.324C33.2576 27.324 31.5776 26.904 30.1136 26.064C28.6496 25.2 27.4976 24 26.6576 22.464C25.8416 20.904 25.4336 19.104 25.4336 17.064ZM47.0195 17.064C47.0195 15.024 47.4275 13.236 48.2435 11.7C49.0835 10.14 50.2355 8.94 51.6995 8.1C53.1635 7.26 54.8435 6.84 56.7395 6.84C59.1395 6.84 61.1195 7.416 62.6795 8.568C64.2635 9.696 65.3315 11.316 65.8835 13.428H61.4555C61.0955 12.444 60.5195 11.676 59.7275 11.124C58.9355 10.572 57.9395 10.296 56.7395 10.296C55.0595 10.296 53.7155 10.896 52.7075 12.096C51.7235 13.272 51.2315 14.928 51.2315 17.064C51.2315 19.2 51.7235 20.868 52.7075 22.068C53.7155 23.268 55.0595 23.868 56.7395 23.868C59.1155 23.868 60.6875 22.824 61.4555 20.736H65.8835C65.3075 22.752 64.2275 24.36 62.6435 25.56C61.0595 26.736 59.0915 27.324 56.7395 27.324C54.8435 27.324 53.1635 26.904 51.6995 26.064C50.2355 25.2 49.0835 24 48.2435 22.464C47.4275 20.904 47.0195 19.104 47.0195 17.064ZM88.1534 16.596C88.1534 17.34 88.1054 18.012 88.0094 18.612H72.8534C72.9734 20.196 73.5614 21.468 74.6174 22.428C75.6734 23.388 76.9694 23.868 78.5054 23.868C80.7134 23.868 82.2734 22.944 83.1854 21.096H87.6134C87.0134 22.92 85.9214 24.42 84.3374 25.596C82.7774 26.748 80.8334 27.324 78.5054 27.324C76.6094 27.324 74.9054 26.904 73.3934 26.064C71.9054 25.2 70.7294 24 69.8654 22.464C69.0254 20.904 68.6054 19.104 68.6054 17.064C68.6054 15.024 69.0134 13.236 69.8294 11.7C70.6694 10.14 71.8334 8.94 73.3214 8.1C74.8334 7.26 76.5614 6.84 78.5054 6.84C80.3774 6.84 82.0454 7.248 83.5094 8.064C84.9734 8.88 86.1134 10.032 86.9294 11.52C87.7454 12.984 88.1534 14.676 88.1534 16.596ZM83.8694 15.3C83.8454 13.788 83.3054 12.576 82.2494 11.664C81.1934 10.752 79.8854 10.296 78.3254 10.296C76.9094 10.296 75.6974 10.752 74.6894 11.664C73.6814 12.552 73.0814 13.764 72.8894 15.3H83.8694ZM96.2962 0.36V27H92.1922V0.36H96.2962ZM111.692 6.84C113.252 6.84 114.644 7.164 115.868 7.812C117.116 8.46 118.088 9.42 118.784 10.692C119.48 11.964 119.828 13.5 119.828 15.3V27H115.76V15.912C115.76 14.136 115.316 12.78 114.428 11.844C113.54 10.884 112.328 10.404 110.792 10.404C109.256 10.404 108.032 10.884 107.12 11.844C106.232 12.78 105.788 14.136 105.788 15.912V27H101.684V7.164H105.788V9.432C106.46 8.616 107.312 7.98 108.344 7.524C109.4 7.068 110.516 6.84 111.692 6.84ZM133.667 27.324C131.795 27.324 130.103 26.904 128.591 26.064C127.079 25.2 125.891 24 125.027 22.464C124.163 20.904 123.731 19.104 123.731 17.064C123.731 15.048 124.175 13.26 125.063 11.7C125.951 10.14 127.163 8.94 128.699 8.1C130.235 7.26 131.951 6.84 133.847 6.84C135.743 6.84 137.459 7.26 138.995 8.1C140.531 8.94 141.743 10.14 142.631 11.7C143.519 13.26 143.963 15.048 143.963 17.064C143.963 19.08 143.507 20.868 142.595 22.428C141.683 23.988 140.435 25.2 138.851 26.064C137.291 26.904 135.563 27.324 133.667 27.324ZM133.667 23.76C134.723 23.76 135.707 23.508 136.619 23.004C137.555 22.5 138.311 21.744 138.887 20.736C139.463 19.728 139.751 18.504 139.751 17.064C139.751 15.624 139.475 14.412 138.923 13.428C138.371 12.42 137.639 11.664 136.727 11.16C135.815 10.656 134.831 10.404 133.775 10.404C132.719 10.404 131.735 10.656 130.823 11.16C129.935 11.664 129.227 12.42 128.699 13.428C128.171 14.412 127.907 15.624 127.907 17.064C127.907 19.2 128.447 20.856 129.527 22.032C130.631 23.184 132.011 23.76 133.667 23.76Z" fill="black" fill-opacity="0.2"/>
<path d="M16.784 21.888H6.308L4.508 27H0.224L9.188 1.944H13.94L22.904 27H18.584L16.784 21.888ZM15.632 18.54L11.564 6.912L7.46 18.54H15.632ZM25.4336 17.064C25.4336 15.024 25.8416 13.236 26.6576 11.7C27.4976 10.14 28.6496 8.94 30.1136 8.1C31.5776 7.26 33.2576 6.84 35.1536 6.84C37.5536 6.84 39.5336 7.416 41.0936 8.568C42.6776 9.696 43.7456 11.316 44.2976 13.428H39.8696C39.5096 12.444 38.9336 11.676 38.1416 11.124C37.3496 10.572 36.3536 10.296 35.1536 10.296C33.4736 10.296 32.1296 10.896 31.1216 12.096C30.1376 13.272 29.6456 14.928 29.6456 17.064C29.6456 19.2 30.1376 20.868 31.1216 22.068C32.1296 23.268 33.4736 23.868 35.1536 23.868C37.5296 23.868 39.1016 22.824 39.8696 20.736H44.2976C43.7216 22.752 42.6416 24.36 41.0576 25.56C39.4736 26.736 37.5056 27.324 35.1536 27.324C33.2576 27.324 31.5776 26.904 30.1136 26.064C28.6496 25.2 27.4976 24 26.6576 22.464C25.8416 20.904 25.4336 19.104 25.4336 17.064ZM47.0195 17.064C47.0195 15.024 47.4275 13.236 48.2435 11.7C49.0835 10.14 50.2355 8.94 51.6995 8.1C53.1635 7.26 54.8435 6.84 56.7395 6.84C59.1395 6.84 61.1195 7.416 62.6795 8.568C64.2635 9.696 65.3315 11.316 65.8835 13.428H61.4555C61.0955 12.444 60.5195 11.676 59.7275 11.124C58.9355 10.572 57.9395 10.296 56.7395 10.296C55.0595 10.296 53.7155 10.896 52.7075 12.096C51.7235 13.272 51.2315 14.928 51.2315 17.064C51.2315 19.2 51.7235 20.868 52.7075 22.068C53.7155 23.268 55.0595 23.868 56.7395 23.868C59.1155 23.868 60.6875 22.824 61.4555 20.736H65.8835C65.3075 22.752 64.2275 24.36 62.6435 25.56C61.0595 26.736 59.0915 27.324 56.7395 27.324C54.8435 27.324 53.1635 26.904 51.6995 26.064C50.2355 25.2 49.0835 24 48.2435 22.464C47.4275 20.904 47.0195 19.104 47.0195 17.064ZM88.1534 16.596C88.1534 17.34 88.1054 18.012 88.0094 18.612H72.8534C72.9734 20.196 73.5614 21.468 74.6174 22.428C75.6734 23.388 76.9694 23.868 78.5054 23.868C80.7134 23.868 82.2734 22.944 83.1854 21.096H87.6134C87.0134 22.92 85.9214 24.42 84.3374 25.596C82.7774 26.748 80.8334 27.324 78.5054 27.324C76.6094 27.324 74.9054 26.904 73.3934 26.064C71.9054 25.2 70.7294 24 69.8654 22.464C69.0254 20.904 68.6054 19.104 68.6054 17.064C68.6054 15.024 69.0134 13.236 69.8294 11.7C70.6694 10.14 71.8334 8.94 73.3214 8.1C74.8334 7.26 76.5614 6.84 78.5054 6.84C80.3774 6.84 82.0454 7.248 83.5094 8.064C84.9734 8.88 86.1134 10.032 86.9294 11.52C87.7454 12.984 88.1534 14.676 88.1534 16.596ZM83.8694 15.3C83.8454 13.788 83.3054 12.576 82.2494 11.664C81.1934 10.752 79.8854 10.296 78.3254 10.296C76.9094 10.296 75.6974 10.752 74.6894 11.664C73.6814 12.552 73.0814 13.764 72.8894 15.3H83.8694ZM96.2962 0.36V27H92.1922V0.36H96.2962ZM111.692 6.84C113.252 6.84 114.644 7.164 115.868 7.812C117.116 8.46 118.088 9.42 118.784 10.692C119.48 11.964 119.828 13.5 119.828 15.3V27H115.76V15.912C115.76 14.136 115.316 12.78 114.428 11.844C113.54 10.884 112.328 10.404 110.792 10.404C109.256 10.404 108.032 10.884 107.12 11.844C106.232 12.78 105.788 14.136 105.788 15.912V27H101.684V7.164H105.788V9.432C106.46 8.616 107.312 7.98 108.344 7.524C109.4 7.068 110.516 6.84 111.692 6.84ZM133.667 27.324C131.795 27.324 130.103 26.904 128.591 26.064C127.079 25.2 125.891 24 125.027 22.464C124.163 20.904 123.731 19.104 123.731 17.064C123.731 15.048 124.175 13.26 125.063 11.7C125.951 10.14 127.163 8.94 128.699 8.1C130.235 7.26 131.951 6.84 133.847 6.84C135.743 6.84 137.459 7.26 138.995 8.1C140.531 8.94 141.743 10.14 142.631 11.7C143.519 13.26 143.963 15.048 143.963 17.064C143.963 19.08 143.507 20.868 142.595 22.428C141.683 23.988 140.435 25.2 138.851 26.064C137.291 26.904 135.563 27.324 133.667 27.324ZM133.667 23.76C134.723 23.76 135.707 23.508 136.619 23.004C137.555 22.5 138.311 21.744 138.887 20.736C139.463 19.728 139.751 18.504 139.751 17.064C139.751 15.624 139.475 14.412 138.923 13.428C138.371 12.42 137.639 11.664 136.727 11.16C135.815 10.656 134.831 10.404 133.775 10.404C132.719 10.404 131.735 10.656 130.823 11.16C129.935 11.664 129.227 12.42 128.699 13.428C128.171 14.412 127.907 15.624 127.907 17.064C127.907 19.2 128.447 20.856 129.527 22.032C130.631 23.184 132.011 23.76 133.667 23.76Z" fill="black" fill-opacity="0.2"/>
<defs>
<linearGradient id="paint0_linear_1300_15254" x1="-16.8726" y1="-21.0302" x2="43.8228" y2="120.661" gradientUnits="userSpaceOnUse">
<stop stop-color="#FF1CF7"/>
<stop offset="1" stop-color="#00F0FF"/>
</linearGradient>
</defs>
</svg>
