<svg xmlns="http://www.w3.org/2000/svg" viewBox="0 0 110.56 21.23">
        <defs>
          <style>
            .cls-10 {
              fill: #615472;
            }
          </style>
        </defs>
        <g id="Layer_2" data-name="Layer 2">
          <g id="Layer_1-2" data-name="Layer 1">
            <path class="cls-10" d="M46.5.17l5.82,14.61-2.5,6.27L41.5.17h5m5.27,0L60.1,21.05l2.5-6.27L56.77.17ZM65.09,6.42,67.58.17h-5ZM0,21.05H5V.17H0ZM8.45.17H6.85v.1h.53c2.66,0,5,2,5,6.43s-2.38,6.42-5,6.42H6.85v.1h1.6c5.27,0,9-2,9-6.52S13.72.17,8.45.17ZM93.13,21.05h5V.17h-5ZM101.58.17H100v.1h.52c2.67,0,5,2,5,6.43s-2.38,6.42-5,6.42H100v.1h1.59c5.27,0,9-2,9-6.52S106.85.17,101.58.17Z"></path>
            <polyline class="cls-10" points="74.84 21.23 73.94 20.88 82.09 0 82.98 0.35 74.84 21.23"></polyline>
            <polyline class="cls-10" points="23.97 21.23 23.07 20.88 31.22 0 32.11 0.35 23.97 21.23"></polyline>
          </g>
        </g>
      </svg>